solid OpenSCAD_Model
  facet normal -0 0 -1
    outer loop
      vertex -20 0 0
      vertex -19.563 4.15823 0
      vertex -19.563 -4.15823 0
    endloop
  endfacet
  facet normal 0 -0 -1
    outer loop
      vertex -19.563 -4.15823 0
      vertex -19.563 4.15823 0
      vertex -18.2709 8.13473 0
    endloop
  endfacet
  facet normal 0 0 -1
    outer loop
      vertex -19.563 -4.15823 0
      vertex -18.2709 8.13473 0
      vertex -16.1803 11.7557 0
    endloop
  endfacet
  facet normal 0 0 -1
    outer loop
      vertex -19.563 -4.15823 0
      vertex -16.1803 11.7557 0
      vertex -13.3826 14.8629 0
    endloop
  endfacet
  facet normal 0 0 -1
    outer loop
      vertex -19.563 -4.15823 0
      vertex -13.3826 14.8629 0
      vertex -10 17.3205 0
    endloop
  endfacet
  facet normal 0 0 -1
    outer loop
      vertex -19.563 -4.15823 0
      vertex -10 17.3205 0
      vertex -6.18034 19.0211 0
    endloop
  endfacet
  facet normal 0 0 -1
    outer loop
      vertex -19.563 -4.15823 0
      vertex -6.18034 19.0211 0
      vertex -2.09057 19.8904 0
    endloop
  endfacet
  facet normal 0 0 -1
    outer loop
      vertex -19.563 -4.15823 0
      vertex -2.09057 19.8904 0
      vertex 2.09057 19.8904 0
    endloop
  endfacet
  facet normal 0 0 -1
    outer loop
      vertex -19.563 -4.15823 0
      vertex 2.09057 19.8904 0
      vertex 6.18034 19.0211 0
    endloop
  endfacet
  facet normal 0 0 -1
    outer loop
      vertex -19.563 -4.15823 0
      vertex 6.18034 19.0211 0
      vertex 10 17.3205 0
    endloop
  endfacet
  facet normal 0 0 -1
    outer loop
      vertex -19.563 -4.15823 0
      vertex 10 17.3205 0
      vertex 13.3826 14.8629 0
    endloop
  endfacet
  facet normal 0 0 -1
    outer loop
      vertex -19.563 -4.15823 0
      vertex 13.3826 14.8629 0
      vertex 16.1803 11.7557 0
    endloop
  endfacet
  facet normal 0 0 -1
    outer loop
      vertex 0.927051 2.85317 0
      vertex 16.1803 11.7557 0
      vertex 18.2709 8.13473 0
    endloop
  endfacet
  facet normal 0 0 -1
    outer loop
      vertex 2.42705 1.76336 0
      vertex 18.2709 8.13473 0
      vertex 19.563 4.15823 0
    endloop
  endfacet
  facet normal -0 0 -1
    outer loop
      vertex 15.7678 1.76777 0
      vertex 19.563 4.15823 0
      vertex 16.5 0 0
    endloop
  endfacet
  facet normal -0 0 -1
    outer loop
      vertex 15.7678 -1.76777 0
      vertex 20 0 0
      vertex 19.563 -4.15823 0
    endloop
  endfacet
  facet normal 0 0 -1
    outer loop
      vertex -19.563 -4.15823 0
      vertex 19.563 -4.15823 0
      vertex 18.2709 -8.13473 0
    endloop
  endfacet
  facet normal 0 0 -1
    outer loop
      vertex -19.563 -4.15823 0
      vertex 18.2709 -8.13473 0
      vertex 16.1803 -11.7557 0
    endloop
  endfacet
  facet normal 0 0 -1
    outer loop
      vertex -19.563 -4.15823 0
      vertex 16.1803 -11.7557 0
      vertex 13.3826 -14.8629 0
    endloop
  endfacet
  facet normal 0 0 -1
    outer loop
      vertex -19.563 -4.15823 0
      vertex 13.3826 -14.8629 0
      vertex 10 -17.3205 0
    endloop
  endfacet
  facet normal 0 0 -1
    outer loop
      vertex -19.563 -4.15823 0
      vertex 10 -17.3205 0
      vertex 6.18034 -19.0211 0
    endloop
  endfacet
  facet normal 0 0 -1
    outer loop
      vertex -19.563 -4.15823 0
      vertex 6.18034 -19.0211 0
      vertex 2.09057 -19.8904 0
    endloop
  endfacet
  facet normal 0 0 -1
    outer loop
      vertex -19.563 -4.15823 0
      vertex 2.09057 -19.8904 0
      vertex -2.09057 -19.8904 0
    endloop
  endfacet
  facet normal 0 0 -1
    outer loop
      vertex -19.563 -4.15823 0
      vertex -2.09057 -19.8904 0
      vertex -6.18034 -19.0211 0
    endloop
  endfacet
  facet normal 0 0 -1
    outer loop
      vertex -19.563 -4.15823 0
      vertex -6.18034 -19.0211 0
      vertex -10 -17.3205 0
    endloop
  endfacet
  facet normal 0 0 -1
    outer loop
      vertex -19.563 -4.15823 0
      vertex -10 -17.3205 0
      vertex -13.3826 -14.8629 0
    endloop
  endfacet
  facet normal 0 0 -1
    outer loop
      vertex -19.563 -4.15823 0
      vertex -13.3826 -14.8629 0
      vertex -16.1803 -11.7557 0
    endloop
  endfacet
  facet normal 0 0 -1
    outer loop
      vertex -19.563 -4.15823 0
      vertex -16.1803 -11.7557 0
      vertex -18.2709 -8.13473 0
    endloop
  endfacet
  facet normal 0 0 -1
    outer loop
      vertex -2.42705 -1.76336 0
      vertex -19.563 -4.15823 0
      vertex -3 0 0
    endloop
  endfacet
  facet normal -0 0 -1
    outer loop
      vertex 2.42705 1.76336 0
      vertex 19.563 4.15823 0
      vertex 3 0 0
    endloop
  endfacet
  facet normal -0 0 -1
    outer loop
      vertex -19.563 -4.15823 0
      vertex -0.927051 -2.85317 0
      vertex 19.563 -4.15823 0
    endloop
  endfacet
  facet normal 0 0 -1
    outer loop
      vertex 3 0 0
      vertex 14 2.5 0
      vertex 12.2322 1.76777 0
    endloop
  endfacet
  facet normal 0 0 -1
    outer loop
      vertex -0.927051 -2.85317 0
      vertex 0.927051 -2.85317 0
      vertex 19.563 -4.15823 0
    endloop
  endfacet
  facet normal -0 0 -1
    outer loop
      vertex 3 0 0
      vertex 12.2322 1.76777 0
      vertex 11.5 0 0
    endloop
  endfacet
  facet normal 0 0 -1
    outer loop
      vertex 3 0 0
      vertex 19.563 4.15823 0
      vertex 14 2.5 0
    endloop
  endfacet
  facet normal 0 0 -1
    outer loop
      vertex -0.927051 -2.85317 0
      vertex -19.563 -4.15823 0
      vertex -2.42705 -1.76336 0
    endloop
  endfacet
  facet normal -0 0 -1
    outer loop
      vertex 14 2.5 0
      vertex 19.563 4.15823 0
      vertex 15.7678 1.76777 0
    endloop
  endfacet
  facet normal -0 0 -1
    outer loop
      vertex 0.927051 2.85317 0
      vertex 18.2709 8.13473 0
      vertex 2.42705 1.76336 0
    endloop
  endfacet
  facet normal -0 0 -1
    outer loop
      vertex -0.927051 2.85317 0
      vertex 16.1803 11.7557 0
      vertex 0.927051 2.85317 0
    endloop
  endfacet
  facet normal 0 0 -1
    outer loop
      vertex -19.563 -4.15823 0
      vertex 16.1803 11.7557 0
      vertex -0.927051 2.85317 0
    endloop
  endfacet
  facet normal 0 0 -1
    outer loop
      vertex -19.563 -4.15823 0
      vertex -0.927051 2.85317 0
      vertex -2.42705 1.76336 0
    endloop
  endfacet
  facet normal -0 0 -1
    outer loop
      vertex 16.5 0 0
      vertex 19.563 4.15823 0
      vertex 20 0 0
    endloop
  endfacet
  facet normal 0 0 -1
    outer loop
      vertex 15.7678 -1.76777 0
      vertex 19.563 -4.15823 0
      vertex 14 -2.5 0
    endloop
  endfacet
  facet normal 0 0 -1
    outer loop
      vertex 0.927051 -2.85317 0
      vertex 12.2322 -1.76777 0
      vertex 14 -2.5 0
    endloop
  endfacet
  facet normal -0 0 -1
    outer loop
      vertex 0.927051 -2.85317 0
      vertex 14 -2.5 0
      vertex 19.563 -4.15823 0
    endloop
  endfacet
  facet normal 0 0 -1
    outer loop
      vertex 16.5 0 0
      vertex 20 0 0
      vertex 15.7678 -1.76777 0
    endloop
  endfacet
  facet normal 0 -0 -1
    outer loop
      vertex -3 0 0
      vertex -19.563 -4.15823 0
      vertex -2.42705 1.76336 0
    endloop
  endfacet
  facet normal 0 0 -1
    outer loop
      vertex 12.2322 -1.76777 0
      vertex 0.927051 -2.85317 0
      vertex 2.42705 -1.76336 0
    endloop
  endfacet
  facet normal 0 0 -1
    outer loop
      vertex 12.2322 -1.76777 0
      vertex 2.42705 -1.76336 0
      vertex 11.5 0 0
    endloop
  endfacet
  facet normal 0 0 -1
    outer loop
      vertex 3 0 0
      vertex 11.5 0 0
      vertex 2.42705 -1.76336 0
    endloop
  endfacet
  facet normal -0.994522 0.104528 0
    outer loop
      vertex -20 0 0
      vertex -20 0 3
      vertex -19.563 4.15823 0
    endloop
  endfacet
  facet normal -0.994522 0.104528 0
    outer loop
      vertex -19.563 4.15823 0
      vertex -20 0 3
      vertex -19.563 4.15823 3
    endloop
  endfacet
  facet normal -0.994522 -0.104528 -0
    outer loop
      vertex -20 0 0
      vertex -19.563 -4.15823 0
      vertex -20 0 3
    endloop
  endfacet
  facet normal -0.994522 -0.104528 0
    outer loop
      vertex -20 0 3
      vertex -19.563 -4.15823 0
      vertex -19.563 -4.15823 3
    endloop
  endfacet
  facet normal -0.951057 -0.309017 -0
    outer loop
      vertex -19.563 -4.15823 0
      vertex -18.2709 -8.13473 0
      vertex -19.563 -4.15823 3
    endloop
  endfacet
  facet normal -0.951057 -0.309017 0
    outer loop
      vertex -19.563 -4.15823 3
      vertex -18.2709 -8.13473 0
      vertex -18.2709 -8.13473 3
    endloop
  endfacet
  facet normal -0.866025 -0.5 -0
    outer loop
      vertex -18.2709 -8.13473 0
      vertex -16.1803 -11.7557 0
      vertex -18.2709 -8.13473 3
    endloop
  endfacet
  facet normal -0.866025 -0.5 0
    outer loop
      vertex -18.2709 -8.13473 3
      vertex -16.1803 -11.7557 0
      vertex -16.1803 -11.7557 3
    endloop
  endfacet
  facet normal -0.743145 -0.669131 -0
    outer loop
      vertex -16.1803 -11.7557 0
      vertex -13.3826 -14.8629 0
      vertex -16.1803 -11.7557 3
    endloop
  endfacet
  facet normal -0.743145 -0.669131 0
    outer loop
      vertex -16.1803 -11.7557 3
      vertex -13.3826 -14.8629 0
      vertex -13.3826 -14.8629 3
    endloop
  endfacet
  facet normal -0.587785 -0.809017 0
    outer loop
      vertex -13.3826 -14.8629 3
      vertex -13.3826 -14.8629 0
      vertex -10 -17.3205 0
    endloop
  endfacet
  facet normal -0.587785 -0.809017 0
    outer loop
      vertex -10 -17.3205 3
      vertex -13.3826 -14.8629 3
      vertex -10 -17.3205 0
    endloop
  endfacet
  facet normal -0.406737 -0.913545 0
    outer loop
      vertex -10 -17.3205 3
      vertex -10 -17.3205 0
      vertex -6.18034 -19.0211 0
    endloop
  endfacet
  facet normal -0.406737 -0.913545 0
    outer loop
      vertex -6.18034 -19.0211 3
      vertex -10 -17.3205 3
      vertex -6.18034 -19.0211 0
    endloop
  endfacet
  facet normal -0.207912 -0.978148 0
    outer loop
      vertex -6.18034 -19.0211 3
      vertex -6.18034 -19.0211 0
      vertex -2.09057 -19.8904 0
    endloop
  endfacet
  facet normal -0.207912 -0.978148 0
    outer loop
      vertex -2.09057 -19.8904 3
      vertex -6.18034 -19.0211 3
      vertex -2.09057 -19.8904 0
    endloop
  endfacet
  facet normal 0 -1 0
    outer loop
      vertex -2.09057 -19.8904 3
      vertex -2.09057 -19.8904 0
      vertex 2.09057 -19.8904 0
    endloop
  endfacet
  facet normal 0 -1 0
    outer loop
      vertex 2.09057 -19.8904 3
      vertex -2.09057 -19.8904 3
      vertex 2.09057 -19.8904 0
    endloop
  endfacet
  facet normal 0.207912 -0.978148 0
    outer loop
      vertex 2.09057 -19.8904 3
      vertex 2.09057 -19.8904 0
      vertex 6.18034 -19.0211 0
    endloop
  endfacet
  facet normal 0.207912 -0.978148 0
    outer loop
      vertex 6.18034 -19.0211 3
      vertex 2.09057 -19.8904 3
      vertex 6.18034 -19.0211 0
    endloop
  endfacet
  facet normal 0.406737 -0.913545 0
    outer loop
      vertex 6.18034 -19.0211 3
      vertex 6.18034 -19.0211 0
      vertex 10 -17.3205 0
    endloop
  endfacet
  facet normal 0.406737 -0.913545 0
    outer loop
      vertex 10 -17.3205 3
      vertex 6.18034 -19.0211 3
      vertex 10 -17.3205 0
    endloop
  endfacet
  facet normal 0.587785 -0.809017 0
    outer loop
      vertex 10 -17.3205 3
      vertex 10 -17.3205 0
      vertex 13.3826 -14.8629 0
    endloop
  endfacet
  facet normal 0.587785 -0.809017 0
    outer loop
      vertex 13.3826 -14.8629 3
      vertex 10 -17.3205 3
      vertex 13.3826 -14.8629 0
    endloop
  endfacet
  facet normal 0.743145 -0.669131 0
    outer loop
      vertex 13.3826 -14.8629 3
      vertex 13.3826 -14.8629 0
      vertex 16.1803 -11.7557 0
    endloop
  endfacet
  facet normal 0.743145 -0.669131 0
    outer loop
      vertex 16.1803 -11.7557 3
      vertex 13.3826 -14.8629 3
      vertex 16.1803 -11.7557 0
    endloop
  endfacet
  facet normal 0.866025 -0.5 0
    outer loop
      vertex 16.1803 -11.7557 3
      vertex 16.1803 -11.7557 0
      vertex 18.2709 -8.13473 0
    endloop
  endfacet
  facet normal 0.866025 -0.5 0
    outer loop
      vertex 18.2709 -8.13473 3
      vertex 16.1803 -11.7557 3
      vertex 18.2709 -8.13473 0
    endloop
  endfacet
  facet normal 0.951057 -0.309017 0
    outer loop
      vertex 18.2709 -8.13473 3
      vertex 18.2709 -8.13473 0
      vertex 19.563 -4.15823 0
    endloop
  endfacet
  facet normal 0.951057 -0.309017 0
    outer loop
      vertex 19.563 -4.15823 3
      vertex 18.2709 -8.13473 3
      vertex 19.563 -4.15823 0
    endloop
  endfacet
  facet normal 0.994522 -0.104528 0
    outer loop
      vertex 19.563 -4.15823 3
      vertex 19.563 -4.15823 0
      vertex 20 0 0
    endloop
  endfacet
  facet normal 0.994522 -0.104528 0
    outer loop
      vertex 20 0 3
      vertex 19.563 -4.15823 3
      vertex 20 0 0
    endloop
  endfacet
  facet normal 0.994522 0.104528 0
    outer loop
      vertex 20 0 0
      vertex 19.563 4.15823 0
      vertex 19.563 4.15823 3
    endloop
  endfacet
  facet normal 0.994522 0.104528 -0
    outer loop
      vertex 20 0 3
      vertex 20 0 0
      vertex 19.563 4.15823 3
    endloop
  endfacet
  facet normal 0.951057 0.309017 0
    outer loop
      vertex 19.563 4.15823 0
      vertex 18.2709 8.13473 0
      vertex 18.2709 8.13473 3
    endloop
  endfacet
  facet normal 0.951057 0.309017 -0
    outer loop
      vertex 19.563 4.15823 3
      vertex 19.563 4.15823 0
      vertex 18.2709 8.13473 3
    endloop
  endfacet
  facet normal 0.866025 0.5 0
    outer loop
      vertex 18.2709 8.13473 0
      vertex 16.1803 11.7557 0
      vertex 16.1803 11.7557 3
    endloop
  endfacet
  facet normal 0.866025 0.5 -0
    outer loop
      vertex 18.2709 8.13473 3
      vertex 18.2709 8.13473 0
      vertex 16.1803 11.7557 3
    endloop
  endfacet
  facet normal 0.743145 0.669131 0
    outer loop
      vertex 16.1803 11.7557 0
      vertex 13.3826 14.8629 0
      vertex 13.3826 14.8629 3
    endloop
  endfacet
  facet normal 0.743145 0.669131 -0
    outer loop
      vertex 16.1803 11.7557 3
      vertex 16.1803 11.7557 0
      vertex 13.3826 14.8629 3
    endloop
  endfacet
  facet normal 0.587785 0.809017 0
    outer loop
      vertex 10 17.3205 0
      vertex 10 17.3205 3
      vertex 13.3826 14.8629 0
    endloop
  endfacet
  facet normal 0.587785 0.809017 0
    outer loop
      vertex 13.3826 14.8629 0
      vertex 10 17.3205 3
      vertex 13.3826 14.8629 3
    endloop
  endfacet
  facet normal 0.406737 0.913545 0
    outer loop
      vertex 6.18034 19.0211 0
      vertex 6.18034 19.0211 3
      vertex 10 17.3205 0
    endloop
  endfacet
  facet normal 0.406737 0.913545 0
    outer loop
      vertex 10 17.3205 0
      vertex 6.18034 19.0211 3
      vertex 10 17.3205 3
    endloop
  endfacet
  facet normal 0.207912 0.978148 0
    outer loop
      vertex 2.09057 19.8904 0
      vertex 2.09057 19.8904 3
      vertex 6.18034 19.0211 0
    endloop
  endfacet
  facet normal 0.207912 0.978148 0
    outer loop
      vertex 6.18034 19.0211 0
      vertex 2.09057 19.8904 3
      vertex 6.18034 19.0211 3
    endloop
  endfacet
  facet normal 0 1 0
    outer loop
      vertex -2.09057 19.8904 0
      vertex -2.09057 19.8904 3
      vertex 2.09057 19.8904 0
    endloop
  endfacet
  facet normal 0 1 0
    outer loop
      vertex 2.09057 19.8904 0
      vertex -2.09057 19.8904 3
      vertex 2.09057 19.8904 3
    endloop
  endfacet
  facet normal -0.207912 0.978148 0
    outer loop
      vertex -6.18034 19.0211 0
      vertex -6.18034 19.0211 3
      vertex -2.09057 19.8904 0
    endloop
  endfacet
  facet normal -0.207912 0.978148 0
    outer loop
      vertex -2.09057 19.8904 0
      vertex -6.18034 19.0211 3
      vertex -2.09057 19.8904 3
    endloop
  endfacet
  facet normal -0.406737 0.913545 0
    outer loop
      vertex -10 17.3205 0
      vertex -10 17.3205 3
      vertex -6.18034 19.0211 0
    endloop
  endfacet
  facet normal -0.406737 0.913545 0
    outer loop
      vertex -6.18034 19.0211 0
      vertex -10 17.3205 3
      vertex -6.18034 19.0211 3
    endloop
  endfacet
  facet normal -0.587785 0.809017 0
    outer loop
      vertex -13.3826 14.8629 0
      vertex -13.3826 14.8629 3
      vertex -10 17.3205 0
    endloop
  endfacet
  facet normal -0.587785 0.809017 0
    outer loop
      vertex -10 17.3205 0
      vertex -13.3826 14.8629 3
      vertex -10 17.3205 3
    endloop
  endfacet
  facet normal -0.743145 0.669131 0
    outer loop
      vertex -16.1803 11.7557 0
      vertex -16.1803 11.7557 3
      vertex -13.3826 14.8629 0
    endloop
  endfacet
  facet normal -0.743145 0.669131 0
    outer loop
      vertex -13.3826 14.8629 0
      vertex -16.1803 11.7557 3
      vertex -13.3826 14.8629 3
    endloop
  endfacet
  facet normal -0.866025 0.5 0
    outer loop
      vertex -18.2709 8.13473 0
      vertex -18.2709 8.13473 3
      vertex -16.1803 11.7557 0
    endloop
  endfacet
  facet normal -0.866025 0.5 0
    outer loop
      vertex -16.1803 11.7557 0
      vertex -18.2709 8.13473 3
      vertex -16.1803 11.7557 3
    endloop
  endfacet
  facet normal -0.951057 0.309017 0
    outer loop
      vertex -19.563 4.15823 0
      vertex -19.563 4.15823 3
      vertex -18.2709 8.13473 0
    endloop
  endfacet
  facet normal -0.951057 0.309017 0
    outer loop
      vertex -18.2709 8.13473 0
      vertex -19.563 4.15823 3
      vertex -18.2709 8.13473 3
    endloop
  endfacet
  facet normal 0.951057 -0.309017 0
    outer loop
      vertex -2.42705 1.76336 0
      vertex -2.42705 1.76336 10
      vertex -3 0 10
    endloop
  endfacet
  facet normal 0.951057 -0.309017 0
    outer loop
      vertex -3 0 0
      vertex -2.42705 1.76336 0
      vertex -3 0 10
    endloop
  endfacet
  facet normal 0.951057 0.309017 0
    outer loop
      vertex -3 0 10
      vertex -2.42705 -1.76336 10
      vertex -2.42705 -1.76336 0
    endloop
  endfacet
  facet normal 0.951057 0.309017 0
    outer loop
      vertex -3 0 0
      vertex -3 0 10
      vertex -2.42705 -1.76336 0
    endloop
  endfacet
  facet normal 0.587785 -0.809017 0
    outer loop
      vertex -0.927051 2.85317 0
      vertex -0.927051 2.85317 10
      vertex -2.42705 1.76336 10
    endloop
  endfacet
  facet normal 0.587785 -0.809017 0
    outer loop
      vertex -2.42705 1.76336 0
      vertex -0.927051 2.85317 0
      vertex -2.42705 1.76336 10
    endloop
  endfacet
  facet normal 0 -1 0
    outer loop
      vertex 0.927051 2.85317 0
      vertex 0.927051 2.85317 10
      vertex -0.927051 2.85317 10
    endloop
  endfacet
  facet normal -0 -1 -0
    outer loop
      vertex -0.927051 2.85317 0
      vertex 0.927051 2.85317 0
      vertex -0.927051 2.85317 10
    endloop
  endfacet
  facet normal -0.587785 -0.809017 -0
    outer loop
      vertex 2.42705 1.76336 0
      vertex 2.42705 1.76336 10
      vertex 0.927051 2.85317 10
    endloop
  endfacet
  facet normal -0.587785 -0.809017 -0
    outer loop
      vertex 0.927051 2.85317 0
      vertex 2.42705 1.76336 0
      vertex 0.927051 2.85317 10
    endloop
  endfacet
  facet normal -0.951057 -0.309017 0
    outer loop
      vertex 3 0 10
      vertex 2.42705 1.76336 10
      vertex 3 0 0
    endloop
  endfacet
  facet normal -0.951057 -0.309017 0
    outer loop
      vertex 3 0 0
      vertex 2.42705 1.76336 10
      vertex 2.42705 1.76336 0
    endloop
  endfacet
  facet normal -0.951057 0.309017 0
    outer loop
      vertex 3 0 10
      vertex 3 0 0
      vertex 2.42705 -1.76336 10
    endloop
  endfacet
  facet normal -0.951057 0.309017 0
    outer loop
      vertex 2.42705 -1.76336 10
      vertex 3 0 0
      vertex 2.42705 -1.76336 0
    endloop
  endfacet
  facet normal -0.587785 0.809017 0
    outer loop
      vertex 2.42705 -1.76336 10
      vertex 2.42705 -1.76336 0
      vertex 0.927051 -2.85317 10
    endloop
  endfacet
  facet normal -0.587785 0.809017 0
    outer loop
      vertex 0.927051 -2.85317 10
      vertex 2.42705 -1.76336 0
      vertex 0.927051 -2.85317 0
    endloop
  endfacet
  facet normal 0 1 0
    outer loop
      vertex 0.927051 -2.85317 10
      vertex 0.927051 -2.85317 0
      vertex -0.927051 -2.85317 10
    endloop
  endfacet
  facet normal 0 1 -0
    outer loop
      vertex -0.927051 -2.85317 10
      vertex 0.927051 -2.85317 0
      vertex -0.927051 -2.85317 0
    endloop
  endfacet
  facet normal 0.587785 0.809017 -0
    outer loop
      vertex -0.927051 -2.85317 10
      vertex -0.927051 -2.85317 0
      vertex -2.42705 -1.76336 10
    endloop
  endfacet
  facet normal 0.587785 0.809017 -0
    outer loop
      vertex -2.42705 -1.76336 10
      vertex -0.927051 -2.85317 0
      vertex -2.42705 -1.76336 0
    endloop
  endfacet
  facet normal 0.92388 -0.382683 0
    outer loop
      vertex 12.2322 1.76777 0
      vertex 12.2322 1.76777 3
      vertex 11.5 0 3
    endloop
  endfacet
  facet normal 0.92388 -0.382683 0
    outer loop
      vertex 11.5 0 0
      vertex 12.2322 1.76777 0
      vertex 11.5 0 3
    endloop
  endfacet
  facet normal 0.92388 0.382683 0
    outer loop
      vertex 11.5 0 3
      vertex 12.2322 -1.76777 3
      vertex 12.2322 -1.76777 0
    endloop
  endfacet
  facet normal 0.92388 0.382683 0
    outer loop
      vertex 11.5 0 0
      vertex 11.5 0 3
      vertex 12.2322 -1.76777 0
    endloop
  endfacet
  facet normal 0.382683 -0.92388 0
    outer loop
      vertex 14 2.5 0
      vertex 14 2.5 3
      vertex 12.2322 1.76777 3
    endloop
  endfacet
  facet normal 0.382683 -0.92388 0
    outer loop
      vertex 12.2322 1.76777 0
      vertex 14 2.5 0
      vertex 12.2322 1.76777 3
    endloop
  endfacet
  facet normal -0.382683 -0.92388 -0
    outer loop
      vertex 15.7678 1.76777 0
      vertex 15.7678 1.76777 3
      vertex 14 2.5 3
    endloop
  endfacet
  facet normal -0.382683 -0.92388 -0
    outer loop
      vertex 14 2.5 0
      vertex 15.7678 1.76777 0
      vertex 14 2.5 3
    endloop
  endfacet
  facet normal -0.92388 -0.382683 0
    outer loop
      vertex 16.5 0 3
      vertex 15.7678 1.76777 3
      vertex 16.5 0 0
    endloop
  endfacet
  facet normal -0.92388 -0.382683 0
    outer loop
      vertex 16.5 0 0
      vertex 15.7678 1.76777 3
      vertex 15.7678 1.76777 0
    endloop
  endfacet
  facet normal -0.92388 0.382683 0
    outer loop
      vertex 16.5 0 3
      vertex 16.5 0 0
      vertex 15.7678 -1.76777 3
    endloop
  endfacet
  facet normal -0.92388 0.382683 0
    outer loop
      vertex 15.7678 -1.76777 3
      vertex 16.5 0 0
      vertex 15.7678 -1.76777 0
    endloop
  endfacet
  facet normal -0.382683 0.92388 0
    outer loop
      vertex 15.7678 -1.76777 3
      vertex 15.7678 -1.76777 0
      vertex 14 -2.5 3
    endloop
  endfacet
  facet normal -0.382683 0.92388 0
    outer loop
      vertex 14 -2.5 3
      vertex 15.7678 -1.76777 0
      vertex 14 -2.5 0
    endloop
  endfacet
  facet normal 0.382683 0.92388 -0
    outer loop
      vertex 14 -2.5 3
      vertex 14 -2.5 0
      vertex 12.2322 -1.76777 3
    endloop
  endfacet
  facet normal 0.382683 0.92388 -0
    outer loop
      vertex 12.2322 -1.76777 3
      vertex 14 -2.5 0
      vertex 12.2322 -1.76777 0
    endloop
  endfacet
  facet normal 0 0 1
    outer loop
      vertex -19.563 4.15823 3
      vertex -20 0 3
      vertex -19.563 -4.15823 3
    endloop
  endfacet
  facet normal 0 0 1
    outer loop
      vertex -16.1803 -11.7557 3
      vertex -19.563 4.15823 3
      vertex -18.2709 -8.13473 3
    endloop
  endfacet
  facet normal 0 0 1
    outer loop
      vertex -18.2709 -8.13473 3
      vertex -19.563 4.15823 3
      vertex -19.563 -4.15823 3
    endloop
  endfacet
  facet normal 0 0 1
    outer loop
      vertex -13.3826 -14.8629 3
      vertex -19.563 4.15823 3
      vertex -16.1803 -11.7557 3
    endloop
  endfacet
  facet normal 0 0 1
    outer loop
      vertex -10 -17.3205 3
      vertex -19.563 4.15823 3
      vertex -13.3826 -14.8629 3
    endloop
  endfacet
  facet normal 0 0 1
    outer loop
      vertex -6.18034 -19.0211 3
      vertex -19.563 4.15823 3
      vertex -10 -17.3205 3
    endloop
  endfacet
  facet normal 0 0 1
    outer loop
      vertex -2.09057 -19.8904 3
      vertex -19.563 4.15823 3
      vertex -6.18034 -19.0211 3
    endloop
  endfacet
  facet normal -0 0 1
    outer loop
      vertex 2.09057 -19.8904 3
      vertex -19.563 4.15823 3
      vertex -2.09057 -19.8904 3
    endloop
  endfacet
  facet normal -0 0 1
    outer loop
      vertex 6.18034 -19.0211 3
      vertex -6.69131 -7.43145 3
      vertex 2.09057 -19.8904 3
    endloop
  endfacet
  facet normal -0 -0 1
    outer loop
      vertex -6.69131 -7.43145 3
      vertex -19.563 4.15823 3
      vertex 2.09057 -19.8904 3
    endloop
  endfacet
  facet normal 0 -0 1
    outer loop
      vertex 6.69131 -7.43145 3
      vertex 5 -8.66025 3
      vertex 16.1803 -11.7557 3
    endloop
  endfacet
  facet normal -0 0 1
    outer loop
      vertex 19.563 -4.15823 3
      vertex 9.78148 -2.07912 3
      vertex 18.2709 -8.13473 3
    endloop
  endfacet
  facet normal 0 0 1
    outer loop
      vertex 3.09017 9.51056 3
      vertex 5 8.66025 3
      vertex 16.1803 11.7557 3
    endloop
  endfacet
  facet normal 0 0 1
    outer loop
      vertex 6.69131 7.43145 3
      vertex 8.09017 5.87785 3
      vertex 18.2709 8.13473 3
    endloop
  endfacet
  facet normal 0 -0 1
    outer loop
      vertex 10 17.3205 3
      vertex -19.563 4.15823 3
      vertex 13.3826 14.8629 3
    endloop
  endfacet
  facet normal 0 -0 1
    outer loop
      vertex 6.18034 19.0211 3
      vertex -19.563 4.15823 3
      vertex 10 17.3205 3
    endloop
  endfacet
  facet normal 0 -0 1
    outer loop
      vertex 2.09057 19.8904 3
      vertex -19.563 4.15823 3
      vertex 6.18034 19.0211 3
    endloop
  endfacet
  facet normal 0 -0 1
    outer loop
      vertex -2.09057 19.8904 3
      vertex -19.563 4.15823 3
      vertex 2.09057 19.8904 3
    endloop
  endfacet
  facet normal 0 -0 1
    outer loop
      vertex -6.18034 19.0211 3
      vertex -19.563 4.15823 3
      vertex -2.09057 19.8904 3
    endloop
  endfacet
  facet normal 0 -0 1
    outer loop
      vertex -10 17.3205 3
      vertex -19.563 4.15823 3
      vertex -6.18034 19.0211 3
    endloop
  endfacet
  facet normal 0 -0 1
    outer loop
      vertex -13.3826 14.8629 3
      vertex -19.563 4.15823 3
      vertex -10 17.3205 3
    endloop
  endfacet
  facet normal 0 -0 1
    outer loop
      vertex -16.1803 11.7557 3
      vertex -19.563 4.15823 3
      vertex -13.3826 14.8629 3
    endloop
  endfacet
  facet normal 0 -0 1
    outer loop
      vertex -18.2709 8.13473 3
      vertex -19.563 4.15823 3
      vertex -16.1803 11.7557 3
    endloop
  endfacet
  facet normal 0 0 1
    outer loop
      vertex -6.69131 -7.43145 3
      vertex -8.09017 -5.87785 3
      vertex -19.563 4.15823 3
    endloop
  endfacet
  facet normal 0 0 1
    outer loop
      vertex -9.13546 4.06737 3
      vertex -8.09017 5.87785 3
      vertex -19.563 4.15823 3
    endloop
  endfacet
  facet normal 0 0 1
    outer loop
      vertex -9.78148 2.07912 3
      vertex -9.13546 4.06737 3
      vertex -19.563 4.15823 3
    endloop
  endfacet
  facet normal 0 -0 1
    outer loop
      vertex 5 -8.66025 3
      vertex 3.09017 -9.51056 3
      vertex 13.3826 -14.8629 3
    endloop
  endfacet
  facet normal 0 0 1
    outer loop
      vertex 12.2322 1.76777 3
      vertex 14 2.5 3
      vertex 9.13546 4.06737 3
    endloop
  endfacet
  facet normal 0 0 1
    outer loop
      vertex 15.7678 1.76777 3
      vertex 16.5 0 3
      vertex 20 0 3
    endloop
  endfacet
  facet normal 0 0 1
    outer loop
      vertex -3.09017 9.51056 3
      vertex -1.04529 9.94522 3
      vertex 13.3826 14.8629 3
    endloop
  endfacet
  facet normal 0 0 1
    outer loop
      vertex 8.09017 5.87785 3
      vertex 9.13546 4.06737 3
      vertex 19.563 4.15823 3
    endloop
  endfacet
  facet normal 0 0 1
    outer loop
      vertex -5 8.66025 3
      vertex -19.563 4.15823 3
      vertex -6.69131 7.43145 3
    endloop
  endfacet
  facet normal 0 0 1
    outer loop
      vertex -3.09017 9.51056 3
      vertex -19.563 4.15823 3
      vertex -5 8.66025 3
    endloop
  endfacet
  facet normal 0 0 1
    outer loop
      vertex -1.04529 9.94522 3
      vertex 1.04529 9.94522 3
      vertex 13.3826 14.8629 3
    endloop
  endfacet
  facet normal 0 0 1.51766e-08
    outer loop
      vertex 13.3826 14.8629 3
      vertex -19.563 4.15823 3
      vertex -3.09017 9.51056 3
    endloop
  endfacet
  facet normal 0 -0 1
    outer loop
      vertex 13.3826 14.8629 3
      vertex 1.04529 9.94522 3
      vertex 16.1803 11.7557 3
    endloop
  endfacet
  facet normal 0 0 1
    outer loop
      vertex 1.04529 9.94522 3
      vertex 3.09017 9.51056 3
      vertex 16.1803 11.7557 3
    endloop
  endfacet
  facet normal 0 -0 1
    outer loop
      vertex 16.1803 11.7557 3
      vertex 5 8.66025 3
      vertex 18.2709 8.13473 3
    endloop
  endfacet
  facet normal 0 0 1
    outer loop
      vertex 5 8.66025 3
      vertex 6.69131 7.43145 3
      vertex 18.2709 8.13473 3
    endloop
  endfacet
  facet normal 0 -0 1
    outer loop
      vertex 18.2709 8.13473 3
      vertex 8.09017 5.87785 3
      vertex 19.563 4.15823 3
    endloop
  endfacet
  facet normal -0 0 1
    outer loop
      vertex -8.09017 5.87785 3
      vertex -6.69131 7.43145 3
      vertex -19.563 4.15823 3
    endloop
  endfacet
  facet normal 0 0 1
    outer loop
      vertex 20 0 3
      vertex 16.5 0 3
      vertex 19.563 -4.15823 3
    endloop
  endfacet
  facet normal -0 -0 1
    outer loop
      vertex 14 -2.5 3
      vertex 9.78148 -2.07912 3
      vertex 19.563 -4.15823 3
    endloop
  endfacet
  facet normal 0 -0 1
    outer loop
      vertex 9.78148 -2.07912 3
      vertex 9.13546 -4.06737 3
      vertex 18.2709 -8.13473 3
    endloop
  endfacet
  facet normal -0 0 1
    outer loop
      vertex 18.2709 -8.13473 3
      vertex 8.09017 -5.87785 3
      vertex 16.1803 -11.7557 3
    endloop
  endfacet
  facet normal 0 -0 1
    outer loop
      vertex 8.09017 -5.87785 3
      vertex 6.69131 -7.43145 3
      vertex 16.1803 -11.7557 3
    endloop
  endfacet
  facet normal -0 0 1
    outer loop
      vertex 16.1803 -11.7557 3
      vertex 5 -8.66025 3
      vertex 13.3826 -14.8629 3
    endloop
  endfacet
  facet normal 0 0 1
    outer loop
      vertex -10 0 3
      vertex -9.78148 2.07912 3
      vertex -19.563 4.15823 3
    endloop
  endfacet
  facet normal -0 0 1
    outer loop
      vertex 13.3826 -14.8629 3
      vertex 3.09017 -9.51056 3
      vertex 10 -17.3205 3
    endloop
  endfacet
  facet normal 0 -0 1
    outer loop
      vertex 3.09017 -9.51056 3
      vertex 1.04529 -9.94522 3
      vertex 10 -17.3205 3
    endloop
  endfacet
  facet normal -0 0 1
    outer loop
      vertex 10 -17.3205 3
      vertex -1.04529 -9.94522 3
      vertex 6.18034 -19.0211 3
    endloop
  endfacet
  facet normal 0 0 1
    outer loop
      vertex 11.5 0 3
      vertex 12.2322 1.76777 3
      vertex 9.78148 2.07912 3
    endloop
  endfacet
  facet normal -0 -0 1
    outer loop
      vertex -1.04529 -9.94522 3
      vertex -3.09017 -9.51056 3
      vertex 6.18034 -19.0211 3
    endloop
  endfacet
  facet normal -0 -0 1
    outer loop
      vertex -3.09017 -9.51056 3
      vertex -5 -8.66025 3
      vertex 6.18034 -19.0211 3
    endloop
  endfacet
  facet normal -0 -0 1
    outer loop
      vertex -5 -8.66025 3
      vertex -6.69131 -7.43145 3
      vertex 6.18034 -19.0211 3
    endloop
  endfacet
  facet normal 0 0 1
    outer loop
      vertex -8.09017 -5.87785 3
      vertex -9.13546 -4.06737 3
      vertex -19.563 4.15823 3
    endloop
  endfacet
  facet normal 0 0 1
    outer loop
      vertex 12.2322 -1.76777 3
      vertex 11.5 0 3
      vertex 10 0 3
    endloop
  endfacet
  facet normal 0 -0 1
    outer loop
      vertex 1.04529 -9.94522 3
      vertex -1.04529 -9.94522 3
      vertex 10 -17.3205 3
    endloop
  endfacet
  facet normal 0 -0 1
    outer loop
      vertex 10 0 3
      vertex 9.78148 -2.07912 3
      vertex 12.2322 -1.76777 3
    endloop
  endfacet
  facet normal 0 0 1
    outer loop
      vertex 9.13546 4.06737 3
      vertex 9.78148 2.07912 3
      vertex 12.2322 1.76777 3
    endloop
  endfacet
  facet normal 0 -0 1
    outer loop
      vertex 15.7678 -1.76777 3
      vertex 14 -2.5 3
      vertex 19.563 -4.15823 3
    endloop
  endfacet
  facet normal 0 0 1
    outer loop
      vertex 19.563 4.15823 3
      vertex 9.13546 4.06737 3
      vertex 14 2.5 3
    endloop
  endfacet
  facet normal 0 -0 1
    outer loop
      vertex 19.563 4.15823 3
      vertex 15.7678 1.76777 3
      vertex 20 0 3
    endloop
  endfacet
  facet normal 0 0 1
    outer loop
      vertex 19.563 4.15823 3
      vertex 14 2.5 3
      vertex 15.7678 1.76777 3
    endloop
  endfacet
  facet normal 0 -0 1
    outer loop
      vertex 9.13546 -4.06737 3
      vertex 8.09017 -5.87785 3
      vertex 18.2709 -8.13473 3
    endloop
  endfacet
  facet normal 0 0 1
    outer loop
      vertex 19.563 -4.15823 3
      vertex 16.5 0 3
      vertex 15.7678 -1.76777 3
    endloop
  endfacet
  facet normal 0 -0 1
    outer loop
      vertex 12.2322 -1.76777 3
      vertex 9.78148 -2.07912 3
      vertex 14 -2.5 3
    endloop
  endfacet
  facet normal 0 0 1
    outer loop
      vertex -9.13546 -4.06737 3
      vertex -9.78148 -2.07912 3
      vertex -19.563 4.15823 3
    endloop
  endfacet
  facet normal 0 0 1
    outer loop
      vertex -9.78148 -2.07912 3
      vertex -10 0 3
      vertex -19.563 4.15823 3
    endloop
  endfacet
  facet normal 0 0 1
    outer loop
      vertex 9.78148 2.07912 3
      vertex 10 0 3
      vertex 11.5 0 3
    endloop
  endfacet
  facet normal 0 0 1
    outer loop
      vertex -11.7378 2.49494 10
      vertex -12 0 10
      vertex -11.7378 -2.49494 10
    endloop
  endfacet
  facet normal 0 0 1
    outer loop
      vertex -9.7082 -7.05342 10
      vertex -11.7378 2.49494 10
      vertex -10.9625 -4.88084 10
    endloop
  endfacet
  facet normal 0 0 1
    outer loop
      vertex -10.9625 -4.88084 10
      vertex -11.7378 2.49494 10
      vertex -11.7378 -2.49494 10
    endloop
  endfacet
  facet normal 0 0 1
    outer loop
      vertex -8.02957 -8.91774 10
      vertex -11.7378 2.49494 10
      vertex -9.7082 -7.05342 10
    endloop
  endfacet
  facet normal 0 0 1
    outer loop
      vertex -6 -10.3923 10
      vertex -11.7378 2.49494 10
      vertex -8.02957 -8.91774 10
    endloop
  endfacet
  facet normal 0 0 1
    outer loop
      vertex -3.7082 -11.4127 10
      vertex -11.7378 2.49494 10
      vertex -6 -10.3923 10
    endloop
  endfacet
  facet normal 0 0 1
    outer loop
      vertex -1.25434 -11.9343 10
      vertex -11.7378 2.49494 10
      vertex -3.7082 -11.4127 10
    endloop
  endfacet
  facet normal -0 0 1
    outer loop
      vertex 1.25434 -11.9343 10
      vertex -11.7378 2.49494 10
      vertex -1.25434 -11.9343 10
    endloop
  endfacet
  facet normal -0 0 1
    outer loop
      vertex 3.7082 -11.4127 10
      vertex -11.7378 2.49494 10
      vertex 1.25434 -11.9343 10
    endloop
  endfacet
  facet normal -0 0 1
    outer loop
      vertex 6 -10.3923 10
      vertex -11.7378 2.49494 10
      vertex 3.7082 -11.4127 10
    endloop
  endfacet
  facet normal -0 0 1
    outer loop
      vertex 8.02957 -8.91774 10
      vertex -11.7378 2.49494 10
      vertex 6 -10.3923 10
    endloop
  endfacet
  facet normal -0 -0 1
    outer loop
      vertex -0.927051 -2.85317 10
      vertex -11.7378 2.49494 10
      vertex 8.02957 -8.91774 10
    endloop
  endfacet
  facet normal 0 0 1
    outer loop
      vertex 0.927051 2.85317 10
      vertex 2.42705 1.76336 10
      vertex 11.7378 2.49494 10
    endloop
  endfacet
  facet normal 0 0 1
    outer loop
      vertex 2.42705 1.76336 10
      vertex 3 0 10
      vertex 12 0 10
    endloop
  endfacet
  facet normal 0 -0 1
    outer loop
      vertex 9.7082 7.05342 10
      vertex -11.7378 2.49494 10
      vertex 10.9625 4.88084 10
    endloop
  endfacet
  facet normal 0 -0 1
    outer loop
      vertex 8.02957 8.91774 10
      vertex -11.7378 2.49494 10
      vertex 9.7082 7.05342 10
    endloop
  endfacet
  facet normal 0 -0 1
    outer loop
      vertex 6 10.3923 10
      vertex -11.7378 2.49494 10
      vertex 8.02957 8.91774 10
    endloop
  endfacet
  facet normal 0 -0 1
    outer loop
      vertex 3.7082 11.4127 10
      vertex -11.7378 2.49494 10
      vertex 6 10.3923 10
    endloop
  endfacet
  facet normal 0 -0 1
    outer loop
      vertex 1.25434 11.9343 10
      vertex -11.7378 2.49494 10
      vertex 3.7082 11.4127 10
    endloop
  endfacet
  facet normal 0 -0 1
    outer loop
      vertex -1.25434 11.9343 10
      vertex -11.7378 2.49494 10
      vertex 1.25434 11.9343 10
    endloop
  endfacet
  facet normal 0 -0 1
    outer loop
      vertex -3.7082 11.4127 10
      vertex -11.7378 2.49494 10
      vertex -1.25434 11.9343 10
    endloop
  endfacet
  facet normal 0 -0 1
    outer loop
      vertex -6 10.3923 10
      vertex -11.7378 2.49494 10
      vertex -3.7082 11.4127 10
    endloop
  endfacet
  facet normal 0 -0 1
    outer loop
      vertex -8.02957 8.91774 10
      vertex -11.7378 2.49494 10
      vertex -6 10.3923 10
    endloop
  endfacet
  facet normal 0 -0 1
    outer loop
      vertex -9.7082 7.05342 10
      vertex -11.7378 2.49494 10
      vertex -8.02957 8.91774 10
    endloop
  endfacet
  facet normal 0 -0 1
    outer loop
      vertex -10.9625 4.88084 10
      vertex -11.7378 2.49494 10
      vertex -9.7082 7.05342 10
    endloop
  endfacet
  facet normal 0 0 1
    outer loop
      vertex -3 0 10
      vertex -2.42705 1.76336 10
      vertex -11.7378 2.49494 10
    endloop
  endfacet
  facet normal 0 0 1
    outer loop
      vertex 0.927051 -2.85317 10
      vertex 8.02957 -8.91774 10
      vertex 9.7082 -7.05342 10
    endloop
  endfacet
  facet normal 0 -0 1
    outer loop
      vertex 3 0 10
      vertex 2.42705 -1.76336 10
      vertex 11.7378 -2.49494 10
    endloop
  endfacet
  facet normal 0 -0 1
    outer loop
      vertex 0.927051 -2.85317 10
      vertex -0.927051 -2.85317 10
      vertex 8.02957 -8.91774 10
    endloop
  endfacet
  facet normal 0 0 1
    outer loop
      vertex 10.9625 4.88084 10
      vertex -11.7378 2.49494 10
      vertex -0.927051 2.85317 10
    endloop
  endfacet
  facet normal 0 -0 1
    outer loop
      vertex 10.9625 4.88084 10
      vertex 0.927051 2.85317 10
      vertex 11.7378 2.49494 10
    endloop
  endfacet
  facet normal 0 0 1
    outer loop
      vertex 10.9625 4.88084 10
      vertex -0.927051 2.85317 10
      vertex 0.927051 2.85317 10
    endloop
  endfacet
  facet normal 0 -0 1
    outer loop
      vertex 11.7378 2.49494 10
      vertex 2.42705 1.76336 10
      vertex 12 0 10
    endloop
  endfacet
  facet normal 0 0 1
    outer loop
      vertex 12 0 10
      vertex 3 0 10
      vertex 11.7378 -2.49494 10
    endloop
  endfacet
  facet normal 0 0 1
    outer loop
      vertex -2.42705 1.76336 10
      vertex -0.927051 2.85317 10
      vertex -11.7378 2.49494 10
    endloop
  endfacet
  facet normal -0 0 1
    outer loop
      vertex 11.7378 -2.49494 10
      vertex 2.42705 -1.76336 10
      vertex 10.9625 -4.88084 10
    endloop
  endfacet
  facet normal -0 0 1
    outer loop
      vertex 10.9625 -4.88084 10
      vertex 0.927051 -2.85317 10
      vertex 9.7082 -7.05342 10
    endloop
  endfacet
  facet normal 0 -0 1
    outer loop
      vertex 2.42705 -1.76336 10
      vertex 0.927051 -2.85317 10
      vertex 10.9625 -4.88084 10
    endloop
  endfacet
  facet normal -0 -0 1
    outer loop
      vertex -2.42705 -1.76336 10
      vertex -11.7378 2.49494 10
      vertex -0.927051 -2.85317 10
    endloop
  endfacet
  facet normal 0 0 1
    outer loop
      vertex -2.42705 -1.76336 10
      vertex -3 0 10
      vertex -11.7378 2.49494 10
    endloop
  endfacet
  facet normal -0.994522 -0.104528 -0
    outer loop
      vertex -10 0 3
      vertex -9.78148 -2.07912 3
      vertex -10 0 8
    endloop
  endfacet
  facet normal -0.994522 -0.104528 0
    outer loop
      vertex -10 0 8
      vertex -9.78148 -2.07912 3
      vertex -9.78148 -2.07912 8
    endloop
  endfacet
  facet normal -0.951057 -0.309017 -0
    outer loop
      vertex -9.78148 -2.07912 3
      vertex -9.13546 -4.06737 3
      vertex -9.78148 -2.07912 8
    endloop
  endfacet
  facet normal -0.951057 -0.309017 0
    outer loop
      vertex -9.78148 -2.07912 8
      vertex -9.13546 -4.06737 3
      vertex -9.13546 -4.06737 8
    endloop
  endfacet
  facet normal -0.866025 -0.5 -0
    outer loop
      vertex -9.13546 -4.06737 3
      vertex -8.09017 -5.87785 3
      vertex -9.13546 -4.06737 8
    endloop
  endfacet
  facet normal -0.866025 -0.5 0
    outer loop
      vertex -9.13546 -4.06737 8
      vertex -8.09017 -5.87785 3
      vertex -8.09017 -5.87785 8
    endloop
  endfacet
  facet normal -0.743145 -0.669131 -0
    outer loop
      vertex -8.09017 -5.87785 3
      vertex -6.69131 -7.43145 3
      vertex -8.09017 -5.87785 8
    endloop
  endfacet
  facet normal -0.743145 -0.669131 0
    outer loop
      vertex -8.09017 -5.87785 8
      vertex -6.69131 -7.43145 3
      vertex -6.69131 -7.43145 8
    endloop
  endfacet
  facet normal -0.587785 -0.809017 0
    outer loop
      vertex -6.69131 -7.43145 8
      vertex -6.69131 -7.43145 3
      vertex -5 -8.66025 3
    endloop
  endfacet
  facet normal -0.587785 -0.809017 0
    outer loop
      vertex -5 -8.66025 8
      vertex -6.69131 -7.43145 8
      vertex -5 -8.66025 3
    endloop
  endfacet
  facet normal -0.406737 -0.913545 0
    outer loop
      vertex -5 -8.66025 8
      vertex -5 -8.66025 3
      vertex -3.09017 -9.51056 3
    endloop
  endfacet
  facet normal -0.406737 -0.913545 0
    outer loop
      vertex -3.09017 -9.51056 8
      vertex -5 -8.66025 8
      vertex -3.09017 -9.51056 3
    endloop
  endfacet
  facet normal -0.207912 -0.978148 0
    outer loop
      vertex -3.09017 -9.51056 8
      vertex -3.09017 -9.51056 3
      vertex -1.04529 -9.94522 3
    endloop
  endfacet
  facet normal -0.207912 -0.978148 0
    outer loop
      vertex -1.04529 -9.94522 8
      vertex -3.09017 -9.51056 8
      vertex -1.04529 -9.94522 3
    endloop
  endfacet
  facet normal 0 -1 0
    outer loop
      vertex -1.04529 -9.94522 8
      vertex -1.04529 -9.94522 3
      vertex 1.04529 -9.94522 3
    endloop
  endfacet
  facet normal 0 -1 0
    outer loop
      vertex 1.04529 -9.94522 8
      vertex -1.04529 -9.94522 8
      vertex 1.04529 -9.94522 3
    endloop
  endfacet
  facet normal 0.207912 -0.978148 0
    outer loop
      vertex 1.04529 -9.94522 8
      vertex 1.04529 -9.94522 3
      vertex 3.09017 -9.51056 3
    endloop
  endfacet
  facet normal 0.207912 -0.978148 0
    outer loop
      vertex 3.09017 -9.51056 8
      vertex 1.04529 -9.94522 8
      vertex 3.09017 -9.51056 3
    endloop
  endfacet
  facet normal 0.406737 -0.913545 0
    outer loop
      vertex 3.09017 -9.51056 8
      vertex 3.09017 -9.51056 3
      vertex 5 -8.66025 3
    endloop
  endfacet
  facet normal 0.406737 -0.913545 0
    outer loop
      vertex 5 -8.66025 8
      vertex 3.09017 -9.51056 8
      vertex 5 -8.66025 3
    endloop
  endfacet
  facet normal 0.587785 -0.809017 0
    outer loop
      vertex 5 -8.66025 8
      vertex 5 -8.66025 3
      vertex 6.69131 -7.43145 3
    endloop
  endfacet
  facet normal 0.587785 -0.809017 0
    outer loop
      vertex 6.69131 -7.43145 8
      vertex 5 -8.66025 8
      vertex 6.69131 -7.43145 3
    endloop
  endfacet
  facet normal 0.743145 -0.669131 0
    outer loop
      vertex 6.69131 -7.43145 8
      vertex 6.69131 -7.43145 3
      vertex 8.09017 -5.87785 3
    endloop
  endfacet
  facet normal 0.743145 -0.669131 0
    outer loop
      vertex 8.09017 -5.87785 8
      vertex 6.69131 -7.43145 8
      vertex 8.09017 -5.87785 3
    endloop
  endfacet
  facet normal 0.866025 -0.5 0
    outer loop
      vertex 8.09017 -5.87785 8
      vertex 8.09017 -5.87785 3
      vertex 9.13546 -4.06737 3
    endloop
  endfacet
  facet normal 0.866025 -0.5 0
    outer loop
      vertex 9.13546 -4.06737 8
      vertex 8.09017 -5.87785 8
      vertex 9.13546 -4.06737 3
    endloop
  endfacet
  facet normal 0.951057 -0.309017 0
    outer loop
      vertex 9.13546 -4.06737 8
      vertex 9.13546 -4.06737 3
      vertex 9.78148 -2.07912 3
    endloop
  endfacet
  facet normal 0.951057 -0.309017 0
    outer loop
      vertex 9.78148 -2.07912 8
      vertex 9.13546 -4.06737 8
      vertex 9.78148 -2.07912 3
    endloop
  endfacet
  facet normal 0.994522 -0.104528 0
    outer loop
      vertex 9.78148 -2.07912 8
      vertex 9.78148 -2.07912 3
      vertex 10 0 3
    endloop
  endfacet
  facet normal 0.994522 -0.104528 0
    outer loop
      vertex 10 0 8
      vertex 9.78148 -2.07912 8
      vertex 10 0 3
    endloop
  endfacet
  facet normal 0.994522 0.104528 0
    outer loop
      vertex 10 0 3
      vertex 9.78148 2.07912 3
      vertex 9.78148 2.07912 8
    endloop
  endfacet
  facet normal 0.994522 0.104528 -0
    outer loop
      vertex 10 0 8
      vertex 10 0 3
      vertex 9.78148 2.07912 8
    endloop
  endfacet
  facet normal 0.951057 0.309017 0
    outer loop
      vertex 9.78148 2.07912 3
      vertex 9.13546 4.06737 3
      vertex 9.13546 4.06737 8
    endloop
  endfacet
  facet normal 0.951057 0.309017 -0
    outer loop
      vertex 9.78148 2.07912 8
      vertex 9.78148 2.07912 3
      vertex 9.13546 4.06737 8
    endloop
  endfacet
  facet normal 0.866025 0.5 0
    outer loop
      vertex 9.13546 4.06737 3
      vertex 8.09017 5.87785 3
      vertex 8.09017 5.87785 8
    endloop
  endfacet
  facet normal 0.866025 0.5 -0
    outer loop
      vertex 9.13546 4.06737 8
      vertex 9.13546 4.06737 3
      vertex 8.09017 5.87785 8
    endloop
  endfacet
  facet normal 0.743145 0.669131 0
    outer loop
      vertex 8.09017 5.87785 3
      vertex 6.69131 7.43145 3
      vertex 6.69131 7.43145 8
    endloop
  endfacet
  facet normal 0.743145 0.669131 -0
    outer loop
      vertex 8.09017 5.87785 8
      vertex 8.09017 5.87785 3
      vertex 6.69131 7.43145 8
    endloop
  endfacet
  facet normal 0.587785 0.809017 0
    outer loop
      vertex 5 8.66025 3
      vertex 5 8.66025 8
      vertex 6.69131 7.43145 3
    endloop
  endfacet
  facet normal 0.587785 0.809017 0
    outer loop
      vertex 6.69131 7.43145 3
      vertex 5 8.66025 8
      vertex 6.69131 7.43145 8
    endloop
  endfacet
  facet normal 0.406737 0.913545 0
    outer loop
      vertex 3.09017 9.51056 3
      vertex 3.09017 9.51056 8
      vertex 5 8.66025 3
    endloop
  endfacet
  facet normal 0.406737 0.913545 0
    outer loop
      vertex 5 8.66025 3
      vertex 3.09017 9.51056 8
      vertex 5 8.66025 8
    endloop
  endfacet
  facet normal 0.207912 0.978148 0
    outer loop
      vertex 1.04529 9.94522 3
      vertex 1.04529 9.94522 8
      vertex 3.09017 9.51056 3
    endloop
  endfacet
  facet normal 0.207912 0.978148 0
    outer loop
      vertex 3.09017 9.51056 3
      vertex 1.04529 9.94522 8
      vertex 3.09017 9.51056 8
    endloop
  endfacet
  facet normal 0 1 0
    outer loop
      vertex -1.04529 9.94522 3
      vertex -1.04529 9.94522 8
      vertex 1.04529 9.94522 3
    endloop
  endfacet
  facet normal 0 1 0
    outer loop
      vertex 1.04529 9.94522 3
      vertex -1.04529 9.94522 8
      vertex 1.04529 9.94522 8
    endloop
  endfacet
  facet normal -0.207912 0.978148 0
    outer loop
      vertex -3.09017 9.51056 3
      vertex -3.09017 9.51056 8
      vertex -1.04529 9.94522 3
    endloop
  endfacet
  facet normal -0.207912 0.978148 0
    outer loop
      vertex -1.04529 9.94522 3
      vertex -3.09017 9.51056 8
      vertex -1.04529 9.94522 8
    endloop
  endfacet
  facet normal -0.406737 0.913545 0
    outer loop
      vertex -5 8.66025 3
      vertex -5 8.66025 8
      vertex -3.09017 9.51056 3
    endloop
  endfacet
  facet normal -0.406737 0.913545 0
    outer loop
      vertex -3.09017 9.51056 3
      vertex -5 8.66025 8
      vertex -3.09017 9.51056 8
    endloop
  endfacet
  facet normal -0.587785 0.809017 0
    outer loop
      vertex -6.69131 7.43145 3
      vertex -6.69131 7.43145 8
      vertex -5 8.66025 3
    endloop
  endfacet
  facet normal -0.587785 0.809017 0
    outer loop
      vertex -5 8.66025 3
      vertex -6.69131 7.43145 8
      vertex -5 8.66025 8
    endloop
  endfacet
  facet normal -0.743145 0.669131 0
    outer loop
      vertex -8.09017 5.87785 3
      vertex -8.09017 5.87785 8
      vertex -6.69131 7.43145 3
    endloop
  endfacet
  facet normal -0.743145 0.669131 0
    outer loop
      vertex -6.69131 7.43145 3
      vertex -8.09017 5.87785 8
      vertex -6.69131 7.43145 8
    endloop
  endfacet
  facet normal -0.866025 0.5 0
    outer loop
      vertex -9.13546 4.06737 3
      vertex -9.13546 4.06737 8
      vertex -8.09017 5.87785 3
    endloop
  endfacet
  facet normal -0.866025 0.5 0
    outer loop
      vertex -8.09017 5.87785 3
      vertex -9.13546 4.06737 8
      vertex -8.09017 5.87785 8
    endloop
  endfacet
  facet normal -0.951057 0.309017 0
    outer loop
      vertex -9.78148 2.07912 3
      vertex -9.78148 2.07912 8
      vertex -9.13546 4.06737 3
    endloop
  endfacet
  facet normal -0.951057 0.309017 0
    outer loop
      vertex -9.13546 4.06737 3
      vertex -9.78148 2.07912 8
      vertex -9.13546 4.06737 8
    endloop
  endfacet
  facet normal -0.994522 0.104528 0
    outer loop
      vertex -10 0 3
      vertex -10 0 8
      vertex -9.78148 2.07912 3
    endloop
  endfacet
  facet normal -0.994522 0.104528 0
    outer loop
      vertex -9.78148 2.07912 3
      vertex -10 0 8
      vertex -9.78148 2.07912 8
    endloop
  endfacet
  facet normal -0.994522 0.104529 0
    outer loop
      vertex -12 0 8
      vertex -12 0 10
      vertex -11.7378 2.49494 8
    endloop
  endfacet
  facet normal -0.994522 0.104529 0
    outer loop
      vertex -11.7378 2.49494 8
      vertex -12 0 10
      vertex -11.7378 2.49494 10
    endloop
  endfacet
  facet normal -0.951057 0.309017 0
    outer loop
      vertex -11.7378 2.49494 8
      vertex -11.7378 2.49494 10
      vertex -10.9625 4.88084 8
    endloop
  endfacet
  facet normal -0.951057 0.309017 0
    outer loop
      vertex -10.9625 4.88084 8
      vertex -11.7378 2.49494 10
      vertex -10.9625 4.88084 10
    endloop
  endfacet
  facet normal -0.866025 0.5 0
    outer loop
      vertex -10.9625 4.88084 8
      vertex -10.9625 4.88084 10
      vertex -9.7082 7.05342 8
    endloop
  endfacet
  facet normal -0.866025 0.5 0
    outer loop
      vertex -9.7082 7.05342 8
      vertex -10.9625 4.88084 10
      vertex -9.7082 7.05342 10
    endloop
  endfacet
  facet normal -0.743145 0.669131 0
    outer loop
      vertex -9.7082 7.05342 8
      vertex -9.7082 7.05342 10
      vertex -8.02957 8.91774 8
    endloop
  endfacet
  facet normal -0.743145 0.669131 0
    outer loop
      vertex -8.02957 8.91774 8
      vertex -9.7082 7.05342 10
      vertex -8.02957 8.91774 10
    endloop
  endfacet
  facet normal -0.587785 0.809017 0
    outer loop
      vertex -8.02957 8.91774 8
      vertex -8.02957 8.91774 10
      vertex -6 10.3923 8
    endloop
  endfacet
  facet normal -0.587785 0.809017 0
    outer loop
      vertex -6 10.3923 8
      vertex -8.02957 8.91774 10
      vertex -6 10.3923 10
    endloop
  endfacet
  facet normal -0.406737 0.913546 0
    outer loop
      vertex -6 10.3923 8
      vertex -6 10.3923 10
      vertex -3.7082 11.4127 8
    endloop
  endfacet
  facet normal -0.406737 0.913546 0
    outer loop
      vertex -3.7082 11.4127 8
      vertex -6 10.3923 10
      vertex -3.7082 11.4127 10
    endloop
  endfacet
  facet normal -0.207912 0.978148 0
    outer loop
      vertex -3.7082 11.4127 8
      vertex -3.7082 11.4127 10
      vertex -1.25434 11.9343 8
    endloop
  endfacet
  facet normal -0.207912 0.978148 0
    outer loop
      vertex -1.25434 11.9343 8
      vertex -3.7082 11.4127 10
      vertex -1.25434 11.9343 10
    endloop
  endfacet
  facet normal 0 1 0
    outer loop
      vertex -1.25434 11.9343 8
      vertex -1.25434 11.9343 10
      vertex 1.25434 11.9343 8
    endloop
  endfacet
  facet normal 0 1 0
    outer loop
      vertex 1.25434 11.9343 8
      vertex -1.25434 11.9343 10
      vertex 1.25434 11.9343 10
    endloop
  endfacet
  facet normal 0.207912 0.978148 0
    outer loop
      vertex 1.25434 11.9343 8
      vertex 1.25434 11.9343 10
      vertex 3.7082 11.4127 8
    endloop
  endfacet
  facet normal 0.207912 0.978148 0
    outer loop
      vertex 3.7082 11.4127 8
      vertex 1.25434 11.9343 10
      vertex 3.7082 11.4127 10
    endloop
  endfacet
  facet normal 0.406737 0.913546 0
    outer loop
      vertex 3.7082 11.4127 8
      vertex 3.7082 11.4127 10
      vertex 6 10.3923 8
    endloop
  endfacet
  facet normal 0.406737 0.913546 0
    outer loop
      vertex 6 10.3923 8
      vertex 3.7082 11.4127 10
      vertex 6 10.3923 10
    endloop
  endfacet
  facet normal 0.587785 0.809017 0
    outer loop
      vertex 6 10.3923 8
      vertex 6 10.3923 10
      vertex 8.02957 8.91774 8
    endloop
  endfacet
  facet normal 0.587785 0.809017 0
    outer loop
      vertex 8.02957 8.91774 8
      vertex 6 10.3923 10
      vertex 8.02957 8.91774 10
    endloop
  endfacet
  facet normal 0.743145 0.669131 0
    outer loop
      vertex 9.7082 7.05342 8
      vertex 8.02957 8.91774 8
      vertex 8.02957 8.91774 10
    endloop
  endfacet
  facet normal 0.743145 0.669131 -0
    outer loop
      vertex 9.7082 7.05342 10
      vertex 9.7082 7.05342 8
      vertex 8.02957 8.91774 10
    endloop
  endfacet
  facet normal 0.866025 0.5 0
    outer loop
      vertex 10.9625 4.88084 8
      vertex 9.7082 7.05342 8
      vertex 9.7082 7.05342 10
    endloop
  endfacet
  facet normal 0.866025 0.5 -0
    outer loop
      vertex 10.9625 4.88084 10
      vertex 10.9625 4.88084 8
      vertex 9.7082 7.05342 10
    endloop
  endfacet
  facet normal 0.951057 0.309017 0
    outer loop
      vertex 11.7378 2.49494 8
      vertex 10.9625 4.88084 8
      vertex 10.9625 4.88084 10
    endloop
  endfacet
  facet normal 0.951057 0.309017 -0
    outer loop
      vertex 11.7378 2.49494 10
      vertex 11.7378 2.49494 8
      vertex 10.9625 4.88084 10
    endloop
  endfacet
  facet normal 0.994522 0.104529 0
    outer loop
      vertex 12 0 8
      vertex 11.7378 2.49494 8
      vertex 11.7378 2.49494 10
    endloop
  endfacet
  facet normal 0.994522 0.104529 -0
    outer loop
      vertex 12 0 10
      vertex 12 0 8
      vertex 11.7378 2.49494 10
    endloop
  endfacet
  facet normal 0.994522 -0.104529 0
    outer loop
      vertex 11.7378 -2.49494 10
      vertex 11.7378 -2.49494 8
      vertex 12 0 8
    endloop
  endfacet
  facet normal 0.994522 -0.104529 0
    outer loop
      vertex 12 0 10
      vertex 11.7378 -2.49494 10
      vertex 12 0 8
    endloop
  endfacet
  facet normal 0.951057 -0.309017 0
    outer loop
      vertex 10.9625 -4.88084 10
      vertex 10.9625 -4.88084 8
      vertex 11.7378 -2.49494 8
    endloop
  endfacet
  facet normal 0.951057 -0.309017 0
    outer loop
      vertex 11.7378 -2.49494 10
      vertex 10.9625 -4.88084 10
      vertex 11.7378 -2.49494 8
    endloop
  endfacet
  facet normal 0.866025 -0.5 0
    outer loop
      vertex 9.7082 -7.05342 10
      vertex 9.7082 -7.05342 8
      vertex 10.9625 -4.88084 8
    endloop
  endfacet
  facet normal 0.866025 -0.5 0
    outer loop
      vertex 10.9625 -4.88084 10
      vertex 9.7082 -7.05342 10
      vertex 10.9625 -4.88084 8
    endloop
  endfacet
  facet normal 0.743145 -0.669131 0
    outer loop
      vertex 8.02957 -8.91774 10
      vertex 8.02957 -8.91774 8
      vertex 9.7082 -7.05342 8
    endloop
  endfacet
  facet normal 0.743145 -0.669131 0
    outer loop
      vertex 9.7082 -7.05342 10
      vertex 8.02957 -8.91774 10
      vertex 9.7082 -7.05342 8
    endloop
  endfacet
  facet normal 0.587785 -0.809017 0
    outer loop
      vertex 6 -10.3923 10
      vertex 6 -10.3923 8
      vertex 8.02957 -8.91774 8
    endloop
  endfacet
  facet normal 0.587785 -0.809017 0
    outer loop
      vertex 8.02957 -8.91774 10
      vertex 6 -10.3923 10
      vertex 8.02957 -8.91774 8
    endloop
  endfacet
  facet normal 0.406737 -0.913546 0
    outer loop
      vertex 3.7082 -11.4127 10
      vertex 3.7082 -11.4127 8
      vertex 6 -10.3923 8
    endloop
  endfacet
  facet normal 0.406737 -0.913546 0
    outer loop
      vertex 6 -10.3923 10
      vertex 3.7082 -11.4127 10
      vertex 6 -10.3923 8
    endloop
  endfacet
  facet normal 0.207912 -0.978148 0
    outer loop
      vertex 1.25434 -11.9343 10
      vertex 1.25434 -11.9343 8
      vertex 3.7082 -11.4127 8
    endloop
  endfacet
  facet normal 0.207912 -0.978148 0
    outer loop
      vertex 3.7082 -11.4127 10
      vertex 1.25434 -11.9343 10
      vertex 3.7082 -11.4127 8
    endloop
  endfacet
  facet normal 0 -1 0
    outer loop
      vertex -1.25434 -11.9343 10
      vertex -1.25434 -11.9343 8
      vertex 1.25434 -11.9343 8
    endloop
  endfacet
  facet normal 0 -1 0
    outer loop
      vertex 1.25434 -11.9343 10
      vertex -1.25434 -11.9343 10
      vertex 1.25434 -11.9343 8
    endloop
  endfacet
  facet normal -0.207912 -0.978148 0
    outer loop
      vertex -3.7082 -11.4127 10
      vertex -3.7082 -11.4127 8
      vertex -1.25434 -11.9343 8
    endloop
  endfacet
  facet normal -0.207912 -0.978148 0
    outer loop
      vertex -1.25434 -11.9343 10
      vertex -3.7082 -11.4127 10
      vertex -1.25434 -11.9343 8
    endloop
  endfacet
  facet normal -0.406737 -0.913546 0
    outer loop
      vertex -6 -10.3923 10
      vertex -6 -10.3923 8
      vertex -3.7082 -11.4127 8
    endloop
  endfacet
  facet normal -0.406737 -0.913546 0
    outer loop
      vertex -3.7082 -11.4127 10
      vertex -6 -10.3923 10
      vertex -3.7082 -11.4127 8
    endloop
  endfacet
  facet normal -0.587785 -0.809017 0
    outer loop
      vertex -8.02957 -8.91774 10
      vertex -8.02957 -8.91774 8
      vertex -6 -10.3923 8
    endloop
  endfacet
  facet normal -0.587785 -0.809017 0
    outer loop
      vertex -6 -10.3923 10
      vertex -8.02957 -8.91774 10
      vertex -6 -10.3923 8
    endloop
  endfacet
  facet normal -0.743145 -0.669131 -0
    outer loop
      vertex -9.7082 -7.05342 8
      vertex -8.02957 -8.91774 8
      vertex -9.7082 -7.05342 10
    endloop
  endfacet
  facet normal -0.743145 -0.669131 0
    outer loop
      vertex -9.7082 -7.05342 10
      vertex -8.02957 -8.91774 8
      vertex -8.02957 -8.91774 10
    endloop
  endfacet
  facet normal -0.866025 -0.5 -0
    outer loop
      vertex -10.9625 -4.88084 8
      vertex -9.7082 -7.05342 8
      vertex -10.9625 -4.88084 10
    endloop
  endfacet
  facet normal -0.866025 -0.5 0
    outer loop
      vertex -10.9625 -4.88084 10
      vertex -9.7082 -7.05342 8
      vertex -9.7082 -7.05342 10
    endloop
  endfacet
  facet normal -0.951057 -0.309017 -0
    outer loop
      vertex -11.7378 -2.49494 8
      vertex -10.9625 -4.88084 8
      vertex -11.7378 -2.49494 10
    endloop
  endfacet
  facet normal -0.951057 -0.309017 0
    outer loop
      vertex -11.7378 -2.49494 10
      vertex -10.9625 -4.88084 8
      vertex -10.9625 -4.88084 10
    endloop
  endfacet
  facet normal -0.994522 -0.104529 -0
    outer loop
      vertex -12 0 8
      vertex -11.7378 -2.49494 8
      vertex -12 0 10
    endloop
  endfacet
  facet normal -0.994522 -0.104529 0
    outer loop
      vertex -12 0 10
      vertex -11.7378 -2.49494 8
      vertex -11.7378 -2.49494 10
    endloop
  endfacet
  facet normal -0 0 -1
    outer loop
      vertex -10.9625 4.88084 8
      vertex -9.7082 7.05342 8
      vertex -11.7378 2.49494 8
    endloop
  endfacet
  facet normal 0 0 -1
    outer loop
      vertex -11.7378 2.49494 8
      vertex -9.7082 7.05342 8
      vertex -8.02957 8.91774 8
    endloop
  endfacet
  facet normal 0 0 -1
    outer loop
      vertex -11.7378 2.49494 8
      vertex -8.02957 8.91774 8
      vertex -6 10.3923 8
    endloop
  endfacet
  facet normal 0 0 -1
    outer loop
      vertex -11.7378 2.49494 8
      vertex -6 10.3923 8
      vertex -3.7082 11.4127 8
    endloop
  endfacet
  facet normal 0 0 -1
    outer loop
      vertex -5 8.66025 8
      vertex -3.7082 11.4127 8
      vertex -1.25434 11.9343 8
    endloop
  endfacet
  facet normal 0 0 -1
    outer loop
      vertex -3.09017 9.51056 8
      vertex -1.25434 11.9343 8
      vertex 1.25434 11.9343 8
    endloop
  endfacet
  facet normal 0 0 -1
    outer loop
      vertex 1.04529 9.94522 8
      vertex 1.25434 11.9343 8
      vertex 3.7082 11.4127 8
    endloop
  endfacet
  facet normal 0 0 -1
    outer loop
      vertex 3.09017 9.51056 8
      vertex 3.7082 11.4127 8
      vertex 6 10.3923 8
    endloop
  endfacet
  facet normal 0 0 -1
    outer loop
      vertex 5 8.66025 8
      vertex 6 10.3923 8
      vertex 8.02957 8.91774 8
    endloop
  endfacet
  facet normal -0 0 -1
    outer loop
      vertex 6.69131 7.43145 8
      vertex 8.02957 8.91774 8
      vertex 9.7082 7.05342 8
    endloop
  endfacet
  facet normal -0 0 -1
    outer loop
      vertex 8.09017 5.87785 8
      vertex 9.7082 7.05342 8
      vertex 10.9625 4.88084 8
    endloop
  endfacet
  facet normal -0 0 -1
    outer loop
      vertex 9.13546 4.06737 8
      vertex 10.9625 4.88084 8
      vertex 11.7378 2.49494 8
    endloop
  endfacet
  facet normal -0 0 -1
    outer loop
      vertex 9.78148 2.07912 8
      vertex 11.7378 2.49494 8
      vertex 12 0 8
    endloop
  endfacet
  facet normal 0 0 -1
    outer loop
      vertex 10 0 8
      vertex 12 0 8
      vertex 11.7378 -2.49494 8
    endloop
  endfacet
  facet normal -0 0 -1
    outer loop
      vertex 9.13546 -4.06737 8
      vertex 11.7378 -2.49494 8
      vertex 10.9625 -4.88084 8
    endloop
  endfacet
  facet normal -0 0 -1
    outer loop
      vertex 8.09017 -5.87785 8
      vertex 10.9625 -4.88084 8
      vertex 9.7082 -7.05342 8
    endloop
  endfacet
  facet normal -0 0 -1
    outer loop
      vertex 6.69131 -7.43145 8
      vertex 9.7082 -7.05342 8
      vertex 8.02957 -8.91774 8
    endloop
  endfacet
  facet normal 0 0 -1
    outer loop
      vertex 5 -8.66025 8
      vertex 8.02957 -8.91774 8
      vertex 6 -10.3923 8
    endloop
  endfacet
  facet normal 0 0 -1
    outer loop
      vertex 3.09017 -9.51056 8
      vertex 6 -10.3923 8
      vertex 3.7082 -11.4127 8
    endloop
  endfacet
  facet normal 0 0 -1
    outer loop
      vertex 1.04529 -9.94522 8
      vertex 3.7082 -11.4127 8
      vertex 1.25434 -11.9343 8
    endloop
  endfacet
  facet normal 0 0 -1
    outer loop
      vertex -1.04529 -9.94522 8
      vertex 1.25434 -11.9343 8
      vertex -1.25434 -11.9343 8
    endloop
  endfacet
  facet normal 0 0 -1
    outer loop
      vertex -5 -8.66025 8
      vertex -1.25434 -11.9343 8
      vertex -3.7082 -11.4127 8
    endloop
  endfacet
  facet normal 0 0 -1
    outer loop
      vertex -6.69131 -7.43145 8
      vertex -3.7082 -11.4127 8
      vertex -6 -10.3923 8
    endloop
  endfacet
  facet normal 0 0 -1
    outer loop
      vertex -9.13546 -4.06737 8
      vertex -6 -10.3923 8
      vertex -8.02957 -8.91774 8
    endloop
  endfacet
  facet normal 0 0 -1
    outer loop
      vertex -11.7378 2.49494 8
      vertex -8.02957 -8.91774 8
      vertex -9.7082 -7.05342 8
    endloop
  endfacet
  facet normal 0 0 -1
    outer loop
      vertex -11.7378 2.49494 8
      vertex -9.7082 -7.05342 8
      vertex -10.9625 -4.88084 8
    endloop
  endfacet
  facet normal 0 0 -1
    outer loop
      vertex -11.7378 2.49494 8
      vertex -10.9625 -4.88084 8
      vertex -11.7378 -2.49494 8
    endloop
  endfacet
  facet normal 0 0 -1
    outer loop
      vertex -11.7378 2.49494 8
      vertex -11.7378 -2.49494 8
      vertex -12 0 8
    endloop
  endfacet
  facet normal 0 0 -1
    outer loop
      vertex -6.69131 -7.43145 8
      vertex -6 -10.3923 8
      vertex -8.09017 -5.87785 8
    endloop
  endfacet
  facet normal 0 0 -1
    outer loop
      vertex -11.7378 2.49494 8
      vertex -9.78148 -2.07912 8
      vertex -8.02957 -8.91774 8
    endloop
  endfacet
  facet normal 0 0 -1
    outer loop
      vertex -8.09017 -5.87785 8
      vertex -6 -10.3923 8
      vertex -9.13546 -4.06737 8
    endloop
  endfacet
  facet normal 0 0 -1
    outer loop
      vertex -9.78148 -2.07912 8
      vertex -9.13546 -4.06737 8
      vertex -8.02957 -8.91774 8
    endloop
  endfacet
  facet normal 0 0 -1
    outer loop
      vertex -3.09017 -9.51056 8
      vertex -1.25434 -11.9343 8
      vertex -5 -8.66025 8
    endloop
  endfacet
  facet normal 0 0 -1
    outer loop
      vertex 1.04529 -9.94522 8
      vertex 1.25434 -11.9343 8
      vertex -1.04529 -9.94522 8
    endloop
  endfacet
  facet normal 0 0 -1
    outer loop
      vertex 3.09017 -9.51056 8
      vertex 3.7082 -11.4127 8
      vertex 1.04529 -9.94522 8
    endloop
  endfacet
  facet normal 0 0 -1
    outer loop
      vertex 5 -8.66025 8
      vertex 6 -10.3923 8
      vertex 3.09017 -9.51056 8
    endloop
  endfacet
  facet normal 0 0 -1
    outer loop
      vertex 6.69131 -7.43145 8
      vertex 8.02957 -8.91774 8
      vertex 5 -8.66025 8
    endloop
  endfacet
  facet normal 0 0 -1
    outer loop
      vertex 8.09017 -5.87785 8
      vertex 9.7082 -7.05342 8
      vertex 6.69131 -7.43145 8
    endloop
  endfacet
  facet normal 0 0 -1
    outer loop
      vertex 9.13546 -4.06737 8
      vertex 10.9625 -4.88084 8
      vertex 8.09017 -5.87785 8
    endloop
  endfacet
  facet normal 0 0 -1
    outer loop
      vertex 9.78148 -2.07912 8
      vertex 11.7378 -2.49494 8
      vertex 9.13546 -4.06737 8
    endloop
  endfacet
  facet normal 0 0 -1
    outer loop
      vertex 10 0 8
      vertex 11.7378 -2.49494 8
      vertex 9.78148 -2.07912 8
    endloop
  endfacet
  facet normal 0 0 -1
    outer loop
      vertex 9.78148 2.07912 8
      vertex 12 0 8
      vertex 10 0 8
    endloop
  endfacet
  facet normal 0 0 -1
    outer loop
      vertex 9.13546 4.06737 8
      vertex 11.7378 2.49494 8
      vertex 9.78148 2.07912 8
    endloop
  endfacet
  facet normal 0 0 -1
    outer loop
      vertex 8.09017 5.87785 8
      vertex 10.9625 4.88084 8
      vertex 9.13546 4.06737 8
    endloop
  endfacet
  facet normal 0 0 -1
    outer loop
      vertex 6.69131 7.43145 8
      vertex 9.7082 7.05342 8
      vertex 8.09017 5.87785 8
    endloop
  endfacet
  facet normal -0 0 -1
    outer loop
      vertex 5 8.66025 8
      vertex 8.02957 8.91774 8
      vertex 6.69131 7.43145 8
    endloop
  endfacet
  facet normal -0 0 -1
    outer loop
      vertex 3.09017 9.51056 8
      vertex 6 10.3923 8
      vertex 5 8.66025 8
    endloop
  endfacet
  facet normal -0 0 -1
    outer loop
      vertex 1.04529 9.94522 8
      vertex 3.7082 11.4127 8
      vertex 3.09017 9.51056 8
    endloop
  endfacet
  facet normal -0 0 -1
    outer loop
      vertex -1.04529 9.94522 8
      vertex 1.25434 11.9343 8
      vertex 1.04529 9.94522 8
    endloop
  endfacet
  facet normal 0 0 -1
    outer loop
      vertex -3.09017 9.51056 8
      vertex 1.25434 11.9343 8
      vertex -1.04529 9.94522 8
    endloop
  endfacet
  facet normal 0 0 -1
    outer loop
      vertex -5 8.66025 8
      vertex -1.25434 11.9343 8
      vertex -3.09017 9.51056 8
    endloop
  endfacet
  facet normal 0 0 -1
    outer loop
      vertex -6.69131 7.43145 8
      vertex -3.7082 11.4127 8
      vertex -5 8.66025 8
    endloop
  endfacet
  facet normal 0 -0 -1
    outer loop
      vertex -9.13546 4.06737 8
      vertex -11.7378 2.49494 8
      vertex -8.09017 5.87785 8
    endloop
  endfacet
  facet normal 0 0 -1
    outer loop
      vertex -11.7378 2.49494 8
      vertex -3.7082 11.4127 8
      vertex -6.69131 7.43145 8
    endloop
  endfacet
  facet normal 0 0 -1
    outer loop
      vertex -11.7378 2.49494 8
      vertex -6.69131 7.43145 8
      vertex -8.09017 5.87785 8
    endloop
  endfacet
  facet normal 0 -0 -1
    outer loop
      vertex -9.78148 2.07912 8
      vertex -11.7378 2.49494 8
      vertex -9.13546 4.06737 8
    endloop
  endfacet
  facet normal 0 -0 -1
    outer loop
      vertex -10 0 8
      vertex -11.7378 2.49494 8
      vertex -9.78148 2.07912 8
    endloop
  endfacet
  facet normal 0 0 -1
    outer loop
      vertex -9.78148 -2.07912 8
      vertex -11.7378 2.49494 8
      vertex -10 0 8
    endloop
  endfacet
  facet normal 0 0 -1
    outer loop
      vertex -1.04529 -9.94522 8
      vertex -1.25434 -11.9343 8
      vertex -3.09017 -9.51056 8
    endloop
  endfacet
  facet normal 0 0 -1
    outer loop
      vertex -5 -8.66025 8
      vertex -3.7082 -11.4127 8
      vertex -6.69131 -7.43145 8
    endloop
  endfacet
endsolid OpenSCAD_Model
