solid OpenSCAD_Model
  facet normal -1 -0 -0
    outer loop
      vertex 25 0 0
      vertex 25 0 3
      vertex 25 75 0
    endloop
  endfacet
  facet normal -1 0 0
    outer loop
      vertex 25 75 0
      vertex 25 0 3
      vertex 25 50 3
    endloop
  endfacet
  facet normal -1 0 0
    outer loop
      vertex 25 60 3
      vertex 25 50 3
      vertex 25 50 13
    endloop
  endfacet
  facet normal -1 0 0
    outer loop
      vertex 25 75 0
      vertex 25 50 3
      vertex 25 60 3
    endloop
  endfacet
  facet normal -1 0 0
    outer loop
      vertex 25 75 3
      vertex 25 75 0
      vertex 25 60 3
    endloop
  endfacet
  facet normal -1 0 0
    outer loop
      vertex 25 60 3
      vertex 25 50 13
      vertex 25 60 13
    endloop
  endfacet
  facet normal 0 -1 0
    outer loop
      vertex 25 0 3
      vertex 25 0 0
      vertex 40 0 0
    endloop
  endfacet
  facet normal 0 -1 0
    outer loop
      vertex 40 0 3
      vertex 25 0 3
      vertex 40 0 0
    endloop
  endfacet
  facet normal -0 -0 -1
    outer loop
      vertex 35.5 5 0
      vertex 25 75 0
      vertex 40 0 0
    endloop
  endfacet
  facet normal 0 -0 -1
    outer loop
      vertex 33 70.5 0
      vertex 25 75 0
      vertex 40 75 0
    endloop
  endfacet
  facet normal 0 -0 -1
    outer loop
      vertex 25 0 0
      vertex 25 75 0
      vertex 30.5 5 0
    endloop
  endfacet
  facet normal 0 0 -1
    outer loop
      vertex 25 0 0
      vertex 30.5 5 0
      vertex 31.2322 3.23223 0
    endloop
  endfacet
  facet normal 0 0 -1
    outer loop
      vertex 25 0 0
      vertex 31.2322 3.23223 0
      vertex 33 2.5 0
    endloop
  endfacet
  facet normal -0 0 -1
    outer loop
      vertex 25 0 0
      vertex 33 2.5 0
      vertex 40 0 0
    endloop
  endfacet
  facet normal -0 0 -1
    outer loop
      vertex 34.7678 69.7678 0
      vertex 40 75 0
      vertex 35.5 68 0
    endloop
  endfacet
  facet normal -0 -0 -1
    outer loop
      vertex 33 7.5 0
      vertex 25 75 0
      vertex 34.7678 6.76777 0
    endloop
  endfacet
  facet normal -0 -0 -1
    outer loop
      vertex 34.7678 6.76777 0
      vertex 25 75 0
      vertex 35.5 5 0
    endloop
  endfacet
  facet normal -0 0 -1
    outer loop
      vertex 34.7678 3.23223 0
      vertex 35.5 5 0
      vertex 40 0 0
    endloop
  endfacet
  facet normal 0 -0 -1
    outer loop
      vertex 31.2322 6.76777 0
      vertex 25 75 0
      vertex 33 7.5 0
    endloop
  endfacet
  facet normal 0 -0 -1
    outer loop
      vertex 30.5 5 0
      vertex 25 75 0
      vertex 31.2322 6.76777 0
    endloop
  endfacet
  facet normal 0 0 -1
    outer loop
      vertex 40 0 0
      vertex 25 75 0
      vertex 30.5 68 0
    endloop
  endfacet
  facet normal 0 0 -1
    outer loop
      vertex 40 0 0
      vertex 30.5 68 0
      vertex 31.2322 66.2322 0
    endloop
  endfacet
  facet normal -0 0 -1
    outer loop
      vertex 33 70.5 0
      vertex 40 75 0
      vertex 34.7678 69.7678 0
    endloop
  endfacet
  facet normal 0 0 -1
    outer loop
      vertex 40 0 0
      vertex 31.2322 66.2322 0
      vertex 33 65.5 0
    endloop
  endfacet
  facet normal 0 0 -1
    outer loop
      vertex 40 0 0
      vertex 33 65.5 0
      vertex 34.7678 66.2322 0
    endloop
  endfacet
  facet normal 0 0 -1
    outer loop
      vertex 40 0 0
      vertex 34.7678 66.2322 0
      vertex 40 75 0
    endloop
  endfacet
  facet normal 0 0 -1
    outer loop
      vertex 34.7678 66.2322 0
      vertex 35.5 68 0
      vertex 40 75 0
    endloop
  endfacet
  facet normal 0 -0 -1
    outer loop
      vertex 31.2322 69.7678 0
      vertex 25 75 0
      vertex 33 70.5 0
    endloop
  endfacet
  facet normal 0 -0 -1
    outer loop
      vertex 30.5 68 0
      vertex 25 75 0
      vertex 31.2322 69.7678 0
    endloop
  endfacet
  facet normal 0 0 -1
    outer loop
      vertex 34.7678 3.23223 0
      vertex 40 0 0
      vertex 33 2.5 0
    endloop
  endfacet
  facet normal 0 1 0
    outer loop
      vertex 25 75 0
      vertex 25 75 3
      vertex 40 75 0
    endloop
  endfacet
  facet normal 0 1 0
    outer loop
      vertex 40 75 0
      vertex 25 75 3
      vertex 40 75 3
    endloop
  endfacet
  facet normal 0 -0 1
    outer loop
      vertex 33 2.5 3
      vertex 25 0 3
      vertex 40 0 3
    endloop
  endfacet
  facet normal 0 -0 1
    outer loop
      vertex 28 50 3
      vertex 25 50 3
      vertex 40 0 3
    endloop
  endfacet
  facet normal 0 -0 1
    outer loop
      vertex 37 50 3
      vertex 28 50 3
      vertex 40 0 3
    endloop
  endfacet
  facet normal 0 0 1
    outer loop
      vertex 40 50 3
      vertex 37 50 3
      vertex 40 0 3
    endloop
  endfacet
  facet normal 0 -0 1
    outer loop
      vertex 35.5 5 3
      vertex 34.7678 3.23223 3
      vertex 40 0 3
    endloop
  endfacet
  facet normal -0 0 1
    outer loop
      vertex 40 60 3
      vertex 40 75 3
      vertex 37 60 3
    endloop
  endfacet
  facet normal -0 0 1
    outer loop
      vertex 31.2322 66.2322 3
      vertex 25 75 3
      vertex 25 60 3
    endloop
  endfacet
  facet normal 0 0 1
    outer loop
      vertex 31.2322 66.2322 3
      vertex 25 60 3
      vertex 28 60 3
    endloop
  endfacet
  facet normal 0 0 1
    outer loop
      vertex 37 60 3
      vertex 28 50 3
      vertex 37 50 3
    endloop
  endfacet
  facet normal 0 -0 1
    outer loop
      vertex 30.5 5 3
      vertex 25 0 3
      vertex 31.2322 3.23223 3
    endloop
  endfacet
  facet normal 0 -0 1
    outer loop
      vertex 25 50 3
      vertex 25 0 3
      vertex 30.5 5 3
    endloop
  endfacet
  facet normal 0 -0 1
    outer loop
      vertex 34.7678 3.23223 3
      vertex 33 2.5 3
      vertex 40 0 3
    endloop
  endfacet
  facet normal -0 0 1
    outer loop
      vertex 33 65.5 3
      vertex 31.2322 66.2322 3
      vertex 28 60 3
    endloop
  endfacet
  facet normal 0 0 1
    outer loop
      vertex 25 50 3
      vertex 31.2322 6.76777 3
      vertex 33 7.5 3
    endloop
  endfacet
  facet normal 0 0 1
    outer loop
      vertex 25 50 3
      vertex 34.7678 6.76777 3
      vertex 40 0 3
    endloop
  endfacet
  facet normal 0 0 1
    outer loop
      vertex 25 50 3
      vertex 33 7.5 3
      vertex 34.7678 6.76777 3
    endloop
  endfacet
  facet normal 0 0 1
    outer loop
      vertex 34.7678 6.76777 3
      vertex 35.5 5 3
      vertex 40 0 3
    endloop
  endfacet
  facet normal 0 0 1
    outer loop
      vertex 34.7678 66.2322 3
      vertex 33 65.5 3
      vertex 28 60 3
    endloop
  endfacet
  facet normal 0 -0 1
    outer loop
      vertex 31.2322 3.23223 3
      vertex 25 0 3
      vertex 33 2.5 3
    endloop
  endfacet
  facet normal -0 -0 1
    outer loop
      vertex 30.5 68 3
      vertex 25 75 3
      vertex 31.2322 66.2322 3
    endloop
  endfacet
  facet normal -0 0 1
    outer loop
      vertex 31.2322 69.7678 3
      vertex 25 75 3
      vertex 30.5 68 3
    endloop
  endfacet
  facet normal 0 0 1
    outer loop
      vertex 40 75 3
      vertex 25 75 3
      vertex 31.2322 69.7678 3
    endloop
  endfacet
  facet normal 0 0 1
    outer loop
      vertex 34.7678 69.7678 3
      vertex 35.5 68 3
      vertex 40 75 3
    endloop
  endfacet
  facet normal 0 0 1
    outer loop
      vertex 40 75 3
      vertex 31.2322 69.7678 3
      vertex 33 70.5 3
    endloop
  endfacet
  facet normal 0 0 1
    outer loop
      vertex 33 70.5 3
      vertex 34.7678 69.7678 3
      vertex 40 75 3
    endloop
  endfacet
  facet normal 0 0 1
    outer loop
      vertex 30.5 5 3
      vertex 31.2322 6.76777 3
      vertex 25 50 3
    endloop
  endfacet
  facet normal 0 0 1
    outer loop
      vertex 37 60 3
      vertex 40 75 3
      vertex 34.7678 66.2322 3
    endloop
  endfacet
  facet normal 0 -0 1
    outer loop
      vertex 35.5 68 3
      vertex 34.7678 66.2322 3
      vertex 40 75 3
    endloop
  endfacet
  facet normal 0 0 1
    outer loop
      vertex 28 60 3
      vertex 37 60 3
      vertex 34.7678 66.2322 3
    endloop
  endfacet
  facet normal 0 -0 1
    outer loop
      vertex 28 60 3
      vertex 28 50 3
      vertex 37 60 3
    endloop
  endfacet
  facet normal 0 1 0
    outer loop
      vertex 25 60 3
      vertex 25 60 13
      vertex 28 60 3
    endloop
  endfacet
  facet normal 0 1 0
    outer loop
      vertex 28 60 3
      vertex 25 60 13
      vertex 28 60 13
    endloop
  endfacet
  facet normal 0 -0 1
    outer loop
      vertex 25 60 13
      vertex 25 50 13
      vertex 28 50 13
    endloop
  endfacet
  facet normal 0 0 1
    outer loop
      vertex 28 60 13
      vertex 25 60 13
      vertex 28 50 13
    endloop
  endfacet
  facet normal 0 -1 0
    outer loop
      vertex 25 50 13
      vertex 25 50 3
      vertex 28 50 3
    endloop
  endfacet
  facet normal 0 -1 0
    outer loop
      vertex 28 50 13
      vertex 25 50 13
      vertex 28 50 3
    endloop
  endfacet
  facet normal 1 0 -0
    outer loop
      vertex 40 0 3
      vertex 40 0 0
      vertex 40 75 0
    endloop
  endfacet
  facet normal 1 0 -0
    outer loop
      vertex 40 50 3
      vertex 40 0 3
      vertex 40 75 0
    endloop
  endfacet
  facet normal 1 0 -0
    outer loop
      vertex 40 60 3
      vertex 40 50 3
      vertex 40 75 0
    endloop
  endfacet
  facet normal 1 0 0
    outer loop
      vertex 40 75 3
      vertex 40 60 3
      vertex 40 75 0
    endloop
  endfacet
  facet normal 1 0 0
    outer loop
      vertex 40 60 13
      vertex 40 50 3
      vertex 40 60 3
    endloop
  endfacet
  facet normal 1 0 -0
    outer loop
      vertex 40 50 13
      vertex 40 50 3
      vertex 40 60 13
    endloop
  endfacet
  facet normal 0.92388 -0.382683 0
    outer loop
      vertex 31.2322 6.76777 0
      vertex 31.2322 6.76777 3
      vertex 30.5 5 3
    endloop
  endfacet
  facet normal 0.92388 -0.382683 0
    outer loop
      vertex 30.5 5 0
      vertex 31.2322 6.76777 0
      vertex 30.5 5 3
    endloop
  endfacet
  facet normal 0.92388 0.382683 0
    outer loop
      vertex 30.5 5 3
      vertex 31.2322 3.23223 3
      vertex 31.2322 3.23223 0
    endloop
  endfacet
  facet normal 0.92388 0.382683 0
    outer loop
      vertex 30.5 5 0
      vertex 30.5 5 3
      vertex 31.2322 3.23223 0
    endloop
  endfacet
  facet normal 0.382683 -0.92388 0
    outer loop
      vertex 33 7.5 0
      vertex 33 7.5 3
      vertex 31.2322 6.76777 3
    endloop
  endfacet
  facet normal 0.382683 -0.92388 0
    outer loop
      vertex 31.2322 6.76777 0
      vertex 33 7.5 0
      vertex 31.2322 6.76777 3
    endloop
  endfacet
  facet normal -0.382683 -0.92388 -0
    outer loop
      vertex 34.7678 6.76777 0
      vertex 34.7678 6.76777 3
      vertex 33 7.5 3
    endloop
  endfacet
  facet normal -0.382683 -0.92388 -0
    outer loop
      vertex 33 7.5 0
      vertex 34.7678 6.76777 0
      vertex 33 7.5 3
    endloop
  endfacet
  facet normal -0.92388 -0.382683 0
    outer loop
      vertex 35.5 5 3
      vertex 34.7678 6.76777 3
      vertex 35.5 5 0
    endloop
  endfacet
  facet normal -0.92388 -0.382683 0
    outer loop
      vertex 35.5 5 0
      vertex 34.7678 6.76777 3
      vertex 34.7678 6.76777 0
    endloop
  endfacet
  facet normal -0.92388 0.382683 0
    outer loop
      vertex 35.5 5 3
      vertex 35.5 5 0
      vertex 34.7678 3.23223 3
    endloop
  endfacet
  facet normal -0.92388 0.382683 0
    outer loop
      vertex 34.7678 3.23223 3
      vertex 35.5 5 0
      vertex 34.7678 3.23223 0
    endloop
  endfacet
  facet normal -0.382683 0.92388 0
    outer loop
      vertex 34.7678 3.23223 3
      vertex 34.7678 3.23223 0
      vertex 33 2.5 3
    endloop
  endfacet
  facet normal -0.382683 0.92388 0
    outer loop
      vertex 33 2.5 3
      vertex 34.7678 3.23223 0
      vertex 33 2.5 0
    endloop
  endfacet
  facet normal 0.382683 0.92388 -0
    outer loop
      vertex 33 2.5 3
      vertex 33 2.5 0
      vertex 31.2322 3.23223 3
    endloop
  endfacet
  facet normal 0.382683 0.92388 -0
    outer loop
      vertex 31.2322 3.23223 3
      vertex 33 2.5 0
      vertex 31.2322 3.23223 0
    endloop
  endfacet
  facet normal 0.92388 -0.382683 0
    outer loop
      vertex 31.2322 69.7678 0
      vertex 31.2322 69.7678 3
      vertex 30.5 68 3
    endloop
  endfacet
  facet normal 0.92388 -0.382683 0
    outer loop
      vertex 30.5 68 0
      vertex 31.2322 69.7678 0
      vertex 30.5 68 3
    endloop
  endfacet
  facet normal 0.92388 0.382683 0
    outer loop
      vertex 30.5 68 3
      vertex 31.2322 66.2322 3
      vertex 31.2322 66.2322 0
    endloop
  endfacet
  facet normal 0.92388 0.382683 0
    outer loop
      vertex 30.5 68 0
      vertex 30.5 68 3
      vertex 31.2322 66.2322 0
    endloop
  endfacet
  facet normal 0.382683 -0.92388 0
    outer loop
      vertex 33 70.5 0
      vertex 33 70.5 3
      vertex 31.2322 69.7678 3
    endloop
  endfacet
  facet normal 0.382683 -0.92388 0
    outer loop
      vertex 31.2322 69.7678 0
      vertex 33 70.5 0
      vertex 31.2322 69.7678 3
    endloop
  endfacet
  facet normal -0.382683 -0.92388 -0
    outer loop
      vertex 34.7678 69.7678 0
      vertex 34.7678 69.7678 3
      vertex 33 70.5 3
    endloop
  endfacet
  facet normal -0.382683 -0.92388 -0
    outer loop
      vertex 33 70.5 0
      vertex 34.7678 69.7678 0
      vertex 33 70.5 3
    endloop
  endfacet
  facet normal -0.92388 -0.382683 0
    outer loop
      vertex 35.5 68 3
      vertex 34.7678 69.7678 3
      vertex 35.5 68 0
    endloop
  endfacet
  facet normal -0.92388 -0.382683 0
    outer loop
      vertex 35.5 68 0
      vertex 34.7678 69.7678 3
      vertex 34.7678 69.7678 0
    endloop
  endfacet
  facet normal -0.92388 0.382683 0
    outer loop
      vertex 35.5 68 3
      vertex 35.5 68 0
      vertex 34.7678 66.2322 3
    endloop
  endfacet
  facet normal -0.92388 0.382683 0
    outer loop
      vertex 34.7678 66.2322 3
      vertex 35.5 68 0
      vertex 34.7678 66.2322 0
    endloop
  endfacet
  facet normal -0.382683 0.92388 0
    outer loop
      vertex 34.7678 66.2322 3
      vertex 34.7678 66.2322 0
      vertex 33 65.5 3
    endloop
  endfacet
  facet normal -0.382683 0.92388 0
    outer loop
      vertex 33 65.5 3
      vertex 34.7678 66.2322 0
      vertex 33 65.5 0
    endloop
  endfacet
  facet normal 0.382683 0.92388 -0
    outer loop
      vertex 33 65.5 3
      vertex 33 65.5 0
      vertex 31.2322 66.2322 3
    endloop
  endfacet
  facet normal 0.382683 0.92388 -0
    outer loop
      vertex 31.2322 66.2322 3
      vertex 33 65.5 0
      vertex 31.2322 66.2322 0
    endloop
  endfacet
  facet normal 1 0 -0
    outer loop
      vertex 28 50 13
      vertex 28 50 3
      vertex 28 60 3
    endloop
  endfacet
  facet normal 1 0 0
    outer loop
      vertex 28 60 13
      vertex 28 50 13
      vertex 28 60 3
    endloop
  endfacet
  facet normal 0 1 0
    outer loop
      vertex 37 60 3
      vertex 37 60 13
      vertex 40 60 3
    endloop
  endfacet
  facet normal 0 1 0
    outer loop
      vertex 40 60 3
      vertex 37 60 13
      vertex 40 60 13
    endloop
  endfacet
  facet normal -1 -0 -0
    outer loop
      vertex 37 50 3
      vertex 37 50 13
      vertex 37 60 3
    endloop
  endfacet
  facet normal -1 0 0
    outer loop
      vertex 37 60 3
      vertex 37 50 13
      vertex 37 60 13
    endloop
  endfacet
  facet normal 0 -1 0
    outer loop
      vertex 37 50 13
      vertex 37 50 3
      vertex 40 50 3
    endloop
  endfacet
  facet normal 0 -1 0
    outer loop
      vertex 40 50 13
      vertex 37 50 13
      vertex 40 50 3
    endloop
  endfacet
  facet normal 0 -0 1
    outer loop
      vertex 37 60 13
      vertex 37 50 13
      vertex 40 50 13
    endloop
  endfacet
  facet normal 0 0 1
    outer loop
      vertex 40 60 13
      vertex 37 60 13
      vertex 40 50 13
    endloop
  endfacet
  facet normal -1 -0 -0
    outer loop
      vertex 50 0 0
      vertex 50 0 10
      vertex 50 55 0
    endloop
  endfacet
  facet normal -1 0 0
    outer loop
      vertex 50 55 0
      vertex 50 0 10
      vertex 50 55 10
    endloop
  endfacet
  facet normal 0 -1 0
    outer loop
      vertex 50 0 10
      vertex 50 0 0
      vertex 58 0 0
    endloop
  endfacet
  facet normal 0 -1 0
    outer loop
      vertex 58 0 10
      vertex 50 0 10
      vertex 58 0 0
    endloop
  endfacet
  facet normal -0 -0 -1
    outer loop
      vertex 50 0 0
      vertex 50 55 0
      vertex 58 0 0
    endloop
  endfacet
  facet normal 0 0 -1
    outer loop
      vertex 58 0 0
      vertex 50 55 0
      vertex 58 55 0
    endloop
  endfacet
  facet normal 0 1 0
    outer loop
      vertex 50 55 0
      vertex 50 55 10
      vertex 58 55 0
    endloop
  endfacet
  facet normal 0 1 0
    outer loop
      vertex 58 55 0
      vertex 50 55 10
      vertex 58 55 10
    endloop
  endfacet
  facet normal 0 -0 1
    outer loop
      vertex 50 55 10
      vertex 50 0 10
      vertex 58 0 10
    endloop
  endfacet
  facet normal 0 0 1
    outer loop
      vertex 58 55 10
      vertex 50 55 10
      vertex 58 0 10
    endloop
  endfacet
  facet normal 1 0 -0
    outer loop
      vertex 58 0 10
      vertex 58 0 0
      vertex 58 55 0
    endloop
  endfacet
  facet normal 1 0 0
    outer loop
      vertex 58 55 10
      vertex 58 0 10
      vertex 58 55 0
    endloop
  endfacet
endsolid OpenSCAD_Model
